<svg xmlns="http://www.w3.org/2000/svg" xmlns:xlink="http://www.w3.org/1999/xlink" width="500" zoomAndPan="magnify" viewBox="0 0 375 374.999991" height="500" preserveAspectRatio="xMidYMid meet" version="1.0"><defs><filter x="0%" y="0%" width="100%" height="100%" id="9e17402ca1"><feColorMatrix values="0 0 0 0 1 0 0 0 0 1 0 0 0 0 1 0 0 0 1 0" color-interpolation-filters="sRGB"/></filter><g/><clipPath id="6f84ef5884"><path d="M 0 0 L 375 0 L 375 375 L 0 375 Z M 0 0 " clip-rule="nonzero"/></clipPath><linearGradient x1="-68.997342" gradientTransform="matrix(0.969409, 0, 0, 0.969108, 69.700138, -11.65163)" y1="401.879273" x2="317.897069" gradientUnits="userSpaceOnUse" y2="14.986006" id="67a8573089"><stop stop-opacity="1" stop-color="rgb(97.24884%, 67.83905%, 0%)" offset="0"/><stop stop-opacity="1" stop-color="rgb(97.24884%, 67.83905%, 0%)" offset="0.125"/><stop stop-opacity="1" stop-color="rgb(97.24884%, 67.83905%, 0%)" offset="0.1875"/><stop stop-opacity="1" stop-color="rgb(97.224426%, 67.713928%, 0.0518799%)" offset="0.203125"/><stop stop-opacity="1" stop-color="rgb(97.085571%, 66.975403%, 0.360107%)" offset="0.207031"/><stop stop-opacity="1" stop-color="rgb(96.97113%, 66.362%, 0.616455%)" offset="0.210937"/><stop stop-opacity="1" stop-color="rgb(96.855164%, 65.748596%, 0.872803%)" offset="0.214844"/><stop stop-opacity="1" stop-color="rgb(96.740723%, 65.136719%, 1.12915%)" offset="0.21875"/><stop stop-opacity="1" stop-color="rgb(96.624756%, 64.523315%, 1.385498%)" offset="0.222656"/><stop stop-opacity="1" stop-color="rgb(96.508789%, 63.909912%, 1.641846%)" offset="0.226562"/><stop stop-opacity="1" stop-color="rgb(96.392822%, 63.296509%, 1.898193%)" offset="0.230469"/><stop stop-opacity="1" stop-color="rgb(96.278381%, 62.683105%, 2.154541%)" offset="0.234375"/><stop stop-opacity="1" stop-color="rgb(96.162415%, 62.069702%, 2.410889%)" offset="0.238281"/><stop stop-opacity="1" stop-color="rgb(96.047974%, 61.456299%, 2.667236%)" offset="0.242187"/><stop stop-opacity="1" stop-color="rgb(95.932007%, 60.842896%, 2.923584%)" offset="0.246094"/><stop stop-opacity="1" stop-color="rgb(95.81604%, 60.231018%, 3.179932%)" offset="0.25"/><stop stop-opacity="1" stop-color="rgb(95.700073%, 59.617615%, 3.436279%)" offset="0.253906"/><stop stop-opacity="1" stop-color="rgb(95.585632%, 59.004211%, 3.692627%)" offset="0.257812"/><stop stop-opacity="1" stop-color="rgb(95.469666%, 58.390808%, 3.948975%)" offset="0.261719"/><stop stop-opacity="1" stop-color="rgb(95.353699%, 57.777405%, 4.205322%)" offset="0.265625"/><stop stop-opacity="1" stop-color="rgb(95.237732%, 57.164001%, 4.46167%)" offset="0.269531"/><stop stop-opacity="1" stop-color="rgb(95.123291%, 56.552124%, 4.718018%)" offset="0.273438"/><stop stop-opacity="1" stop-color="rgb(95.007324%, 55.938721%, 4.974365%)" offset="0.277344"/><stop stop-opacity="1" stop-color="rgb(94.892883%, 55.325317%, 5.230713%)" offset="0.28125"/><stop stop-opacity="1" stop-color="rgb(94.776917%, 54.711914%, 5.487061%)" offset="0.285156"/><stop stop-opacity="1" stop-color="rgb(94.66095%, 54.098511%, 5.743408%)" offset="0.289062"/><stop stop-opacity="1" stop-color="rgb(94.544983%, 53.485107%, 5.999756%)" offset="0.292969"/><stop stop-opacity="1" stop-color="rgb(94.430542%, 52.871704%, 6.256104%)" offset="0.296875"/><stop stop-opacity="1" stop-color="rgb(94.314575%, 52.258301%, 6.512451%)" offset="0.300781"/><stop stop-opacity="1" stop-color="rgb(94.200134%, 51.646423%, 6.768799%)" offset="0.304688"/><stop stop-opacity="1" stop-color="rgb(94.084167%, 51.03302%, 7.025146%)" offset="0.308594"/><stop stop-opacity="1" stop-color="rgb(93.968201%, 50.419617%, 7.281494%)" offset="0.3125"/><stop stop-opacity="1" stop-color="rgb(93.852234%, 49.806213%, 7.537842%)" offset="0.316406"/><stop stop-opacity="1" stop-color="rgb(93.737793%, 49.19281%, 7.794189%)" offset="0.320313"/><stop stop-opacity="1" stop-color="rgb(93.621826%, 48.579407%, 8.050537%)" offset="0.324219"/><stop stop-opacity="1" stop-color="rgb(93.505859%, 47.966003%, 8.306885%)" offset="0.328125"/><stop stop-opacity="1" stop-color="rgb(93.389893%, 47.3526%, 8.563232%)" offset="0.332031"/><stop stop-opacity="1" stop-color="rgb(93.275452%, 46.740723%, 8.81958%)" offset="0.335938"/><stop stop-opacity="1" stop-color="rgb(93.159485%, 46.127319%, 9.075928%)" offset="0.339844"/><stop stop-opacity="1" stop-color="rgb(93.045044%, 45.513916%, 9.332275%)" offset="0.34375"/><stop stop-opacity="1" stop-color="rgb(92.929077%, 44.900513%, 9.588623%)" offset="0.347656"/><stop stop-opacity="1" stop-color="rgb(92.81311%, 44.287109%, 9.844971%)" offset="0.351562"/><stop stop-opacity="1" stop-color="rgb(92.697144%, 43.673706%, 10.101318%)" offset="0.355469"/><stop stop-opacity="1" stop-color="rgb(92.582703%, 43.061829%, 10.357666%)" offset="0.359375"/><stop stop-opacity="1" stop-color="rgb(92.466736%, 42.448425%, 10.614014%)" offset="0.363281"/><stop stop-opacity="1" stop-color="rgb(92.352295%, 41.835022%, 10.870361%)" offset="0.367188"/><stop stop-opacity="1" stop-color="rgb(92.236328%, 41.221619%, 11.126709%)" offset="0.371094"/><stop stop-opacity="1" stop-color="rgb(92.120361%, 40.608215%, 11.383057%)" offset="0.375"/><stop stop-opacity="1" stop-color="rgb(92.004395%, 39.994812%, 11.639404%)" offset="0.378906"/><stop stop-opacity="1" stop-color="rgb(91.889954%, 39.381409%, 11.895752%)" offset="0.382812"/><stop stop-opacity="1" stop-color="rgb(91.773987%, 38.768005%, 12.1521%)" offset="0.386719"/><stop stop-opacity="1" stop-color="rgb(91.65802%, 38.156128%, 12.408447%)" offset="0.390625"/><stop stop-opacity="1" stop-color="rgb(91.542053%, 37.542725%, 12.664795%)" offset="0.394531"/><stop stop-opacity="1" stop-color="rgb(91.427612%, 36.929321%, 12.921143%)" offset="0.398438"/><stop stop-opacity="1" stop-color="rgb(91.311646%, 36.315918%, 13.17749%)" offset="0.402344"/><stop stop-opacity="1" stop-color="rgb(91.197205%, 35.702515%, 13.433838%)" offset="0.40625"/><stop stop-opacity="1" stop-color="rgb(91.081238%, 35.089111%, 13.690186%)" offset="0.410156"/><stop stop-opacity="1" stop-color="rgb(90.965271%, 34.477234%, 13.946533%)" offset="0.414062"/><stop stop-opacity="1" stop-color="rgb(90.849304%, 33.863831%, 14.202881%)" offset="0.417969"/><stop stop-opacity="1" stop-color="rgb(90.734863%, 33.250427%, 14.459229%)" offset="0.421875"/><stop stop-opacity="1" stop-color="rgb(90.618896%, 32.637024%, 14.715576%)" offset="0.425781"/><stop stop-opacity="1" stop-color="rgb(90.504456%, 32.023621%, 14.971924%)" offset="0.429687"/><stop stop-opacity="1" stop-color="rgb(90.388489%, 31.410217%, 15.228271%)" offset="0.433594"/><stop stop-opacity="1" stop-color="rgb(90.272522%, 30.796814%, 15.484619%)" offset="0.4375"/><stop stop-opacity="1" stop-color="rgb(90.156555%, 30.183411%, 15.740967%)" offset="0.441406"/><stop stop-opacity="1" stop-color="rgb(90.042114%, 29.571533%, 15.997314%)" offset="0.445312"/><stop stop-opacity="1" stop-color="rgb(89.926147%, 28.95813%, 16.253662%)" offset="0.449219"/><stop stop-opacity="1" stop-color="rgb(89.811707%, 28.344727%, 16.51001%)" offset="0.453125"/><stop stop-opacity="1" stop-color="rgb(89.69574%, 27.731323%, 16.766357%)" offset="0.457031"/><stop stop-opacity="1" stop-color="rgb(89.579773%, 27.11792%, 17.022705%)" offset="0.460938"/><stop stop-opacity="1" stop-color="rgb(89.463806%, 26.504517%, 17.279053%)" offset="0.464844"/><stop stop-opacity="1" stop-color="rgb(89.349365%, 25.891113%, 17.5354%)" offset="0.46875"/><stop stop-opacity="1" stop-color="rgb(89.233398%, 25.27771%, 17.791748%)" offset="0.472656"/><stop stop-opacity="1" stop-color="rgb(89.117432%, 24.665833%, 18.048096%)" offset="0.476562"/><stop stop-opacity="1" stop-color="rgb(89.001465%, 24.052429%, 18.304443%)" offset="0.480469"/><stop stop-opacity="1" stop-color="rgb(88.887024%, 23.439026%, 18.560791%)" offset="0.484375"/><stop stop-opacity="1" stop-color="rgb(88.771057%, 22.825623%, 18.817139%)" offset="0.488281"/><stop stop-opacity="1" stop-color="rgb(88.656616%, 22.212219%, 19.073486%)" offset="0.492188"/><stop stop-opacity="1" stop-color="rgb(88.540649%, 21.598816%, 19.329834%)" offset="0.496094"/><stop stop-opacity="1" stop-color="rgb(88.424683%, 20.986938%, 19.586182%)" offset="0.5"/><stop stop-opacity="1" stop-color="rgb(88.166809%, 20.585632%, 19.992065%)" offset="0.503906"/><stop stop-opacity="1" stop-color="rgb(87.908936%, 20.185852%, 20.399475%)" offset="0.507812"/><stop stop-opacity="1" stop-color="rgb(87.063599%, 20.663452%, 21.424866%)" offset="0.511719"/><stop stop-opacity="1" stop-color="rgb(86.219788%, 21.141052%, 22.450256%)" offset="0.515625"/><stop stop-opacity="1" stop-color="rgb(85.374451%, 21.617126%, 23.475647%)" offset="0.519531"/><stop stop-opacity="1" stop-color="rgb(84.53064%, 22.094727%, 24.501038%)" offset="0.523438"/><stop stop-opacity="1" stop-color="rgb(83.686829%, 22.572327%, 25.526428%)" offset="0.527344"/><stop stop-opacity="1" stop-color="rgb(82.843018%, 23.049927%, 26.551819%)" offset="0.53125"/><stop stop-opacity="1" stop-color="rgb(81.997681%, 23.527527%, 27.577209%)" offset="0.535156"/><stop stop-opacity="1" stop-color="rgb(81.15387%, 24.005127%, 28.6026%)" offset="0.539063"/><stop stop-opacity="1" stop-color="rgb(80.308533%, 24.482727%, 29.627991%)" offset="0.542969"/><stop stop-opacity="1" stop-color="rgb(79.464722%, 24.960327%, 30.653381%)" offset="0.546875"/><stop stop-opacity="1" stop-color="rgb(78.619385%, 25.437927%, 31.678772%)" offset="0.550781"/><stop stop-opacity="1" stop-color="rgb(77.775574%, 25.915527%, 32.704163%)" offset="0.554688"/><stop stop-opacity="1" stop-color="rgb(76.930237%, 26.393127%, 33.729553%)" offset="0.558594"/><stop stop-opacity="1" stop-color="rgb(76.086426%, 26.870728%, 34.754944%)" offset="0.5625"/><stop stop-opacity="1" stop-color="rgb(75.241089%, 27.346802%, 35.780334%)" offset="0.566406"/><stop stop-opacity="1" stop-color="rgb(74.397278%, 27.824402%, 36.805725%)" offset="0.570312"/><stop stop-opacity="1" stop-color="rgb(73.551941%, 28.302002%, 37.831116%)" offset="0.574219"/><stop stop-opacity="1" stop-color="rgb(72.70813%, 28.779602%, 38.856506%)" offset="0.578125"/><stop stop-opacity="1" stop-color="rgb(71.862793%, 29.257202%, 39.881897%)" offset="0.582031"/><stop stop-opacity="1" stop-color="rgb(71.018982%, 29.734802%, 40.907288%)" offset="0.585938"/><stop stop-opacity="1" stop-color="rgb(70.173645%, 30.212402%, 41.932678%)" offset="0.589844"/><stop stop-opacity="1" stop-color="rgb(69.329834%, 30.690002%, 42.958069%)" offset="0.59375"/><stop stop-opacity="1" stop-color="rgb(68.484497%, 31.167603%, 43.983459%)" offset="0.597656"/><stop stop-opacity="1" stop-color="rgb(67.640686%, 31.645203%, 45.00885%)" offset="0.601562"/><stop stop-opacity="1" stop-color="rgb(66.795349%, 32.121277%, 46.034241%)" offset="0.605469"/><stop stop-opacity="1" stop-color="rgb(65.951538%, 32.598877%, 47.059631%)" offset="0.609375"/><stop stop-opacity="1" stop-color="rgb(65.106201%, 33.076477%, 48.085022%)" offset="0.613281"/><stop stop-opacity="1" stop-color="rgb(64.26239%, 33.554077%, 49.110413%)" offset="0.617188"/><stop stop-opacity="1" stop-color="rgb(63.417053%, 34.031677%, 50.135803%)" offset="0.621094"/><stop stop-opacity="1" stop-color="rgb(62.573242%, 34.509277%, 51.161194%)" offset="0.625"/><stop stop-opacity="1" stop-color="rgb(61.727905%, 34.986877%, 52.186584%)" offset="0.628906"/><stop stop-opacity="1" stop-color="rgb(60.884094%, 35.464478%, 53.211975%)" offset="0.632813"/><stop stop-opacity="1" stop-color="rgb(60.038757%, 35.942078%, 54.237366%)" offset="0.636719"/><stop stop-opacity="1" stop-color="rgb(59.194946%, 36.419678%, 55.262756%)" offset="0.640625"/><stop stop-opacity="1" stop-color="rgb(58.349609%, 36.895752%, 56.288147%)" offset="0.644531"/><stop stop-opacity="1" stop-color="rgb(57.505798%, 37.373352%, 57.313538%)" offset="0.648438"/><stop stop-opacity="1" stop-color="rgb(56.660461%, 37.850952%, 58.338928%)" offset="0.652344"/><stop stop-opacity="1" stop-color="rgb(55.81665%, 38.328552%, 59.364319%)" offset="0.65625"/><stop stop-opacity="1" stop-color="rgb(54.971313%, 38.806152%, 60.389709%)" offset="0.660156"/><stop stop-opacity="1" stop-color="rgb(54.127502%, 39.283752%, 61.4151%)" offset="0.664062"/><stop stop-opacity="1" stop-color="rgb(53.282166%, 39.761353%, 62.440491%)" offset="0.667969"/><stop stop-opacity="1" stop-color="rgb(52.438354%, 40.238953%, 63.465881%)" offset="0.671875"/><stop stop-opacity="1" stop-color="rgb(51.593018%, 40.716553%, 64.491272%)" offset="0.675781"/><stop stop-opacity="1" stop-color="rgb(50.749207%, 41.194153%, 65.516663%)" offset="0.679688"/><stop stop-opacity="1" stop-color="rgb(49.90387%, 41.670227%, 66.542053%)" offset="0.683594"/><stop stop-opacity="1" stop-color="rgb(49.060059%, 42.147827%, 67.567444%)" offset="0.6875"/><stop stop-opacity="1" stop-color="rgb(48.214722%, 42.625427%, 68.592834%)" offset="0.691406"/><stop stop-opacity="1" stop-color="rgb(47.370911%, 43.103027%, 69.618225%)" offset="0.695312"/><stop stop-opacity="1" stop-color="rgb(46.525574%, 43.580627%, 70.643616%)" offset="0.699219"/><stop stop-opacity="1" stop-color="rgb(45.681763%, 44.058228%, 71.669006%)" offset="0.703125"/><stop stop-opacity="1" stop-color="rgb(44.836426%, 44.535828%, 72.694397%)" offset="0.707031"/><stop stop-opacity="1" stop-color="rgb(43.992615%, 45.013428%, 73.721313%)" offset="0.710938"/><stop stop-opacity="1" stop-color="rgb(43.147278%, 45.491028%, 74.746704%)" offset="0.714844"/><stop stop-opacity="1" stop-color="rgb(42.303467%, 45.968628%, 75.772095%)" offset="0.71875"/><stop stop-opacity="1" stop-color="rgb(41.45813%, 46.444702%, 76.797485%)" offset="0.722656"/><stop stop-opacity="1" stop-color="rgb(40.614319%, 46.922302%, 77.822876%)" offset="0.726562"/><stop stop-opacity="1" stop-color="rgb(39.768982%, 47.399902%, 78.848267%)" offset="0.730469"/><stop stop-opacity="1" stop-color="rgb(38.925171%, 47.877502%, 79.873657%)" offset="0.734375"/><stop stop-opacity="1" stop-color="rgb(38.079834%, 48.355103%, 80.899048%)" offset="0.738281"/><stop stop-opacity="1" stop-color="rgb(37.236023%, 48.832703%, 81.924438%)" offset="0.742188"/><stop stop-opacity="1" stop-color="rgb(36.390686%, 49.310303%, 82.949829%)" offset="0.746094"/><stop stop-opacity="1" stop-color="rgb(35.546875%, 49.787903%, 83.97522%)" offset="0.75"/><stop stop-opacity="1" stop-color="rgb(34.701538%, 50.265503%, 85.00061%)" offset="0.753906"/><stop stop-opacity="1" stop-color="rgb(33.857727%, 50.743103%, 86.026001%)" offset="0.757812"/><stop stop-opacity="1" stop-color="rgb(33.01239%, 51.220703%, 87.051392%)" offset="0.761719"/><stop stop-opacity="1" stop-color="rgb(32.168579%, 51.698303%, 88.076782%)" offset="0.765625"/><stop stop-opacity="1" stop-color="rgb(31.324768%, 52.174377%, 89.102173%)" offset="0.769531"/><stop stop-opacity="1" stop-color="rgb(30.480957%, 52.651978%, 90.127563%)" offset="0.773438"/><stop stop-opacity="1" stop-color="rgb(29.63562%, 53.129578%, 91.152954%)" offset="0.777344"/><stop stop-opacity="1" stop-color="rgb(28.791809%, 53.607178%, 92.178345%)" offset="0.78125"/><stop stop-opacity="1" stop-color="rgb(27.946472%, 54.084778%, 93.203735%)" offset="0.785156"/><stop stop-opacity="1" stop-color="rgb(27.102661%, 54.562378%, 94.229126%)" offset="0.789062"/><stop stop-opacity="1" stop-color="rgb(26.257324%, 55.039978%, 95.254517%)" offset="0.792969"/><stop stop-opacity="1" stop-color="rgb(25.413513%, 55.517578%, 96.279907%)" offset="0.796875"/><stop stop-opacity="1" stop-color="rgb(24.568176%, 55.995178%, 97.305298%)" offset="0.800781"/><stop stop-opacity="1" stop-color="rgb(23.724365%, 56.472778%, 98.330688%)" offset="0.804688"/><stop stop-opacity="1" stop-color="rgb(23.036194%, 56.860352%, 99.165344%)" offset="0.808594"/><stop stop-opacity="1" stop-color="rgb(22.349548%, 57.249451%, 100%)" offset="0.8125"/><stop stop-opacity="1" stop-color="rgb(22.349548%, 57.249451%, 100%)" offset="0.875"/><stop stop-opacity="1" stop-color="rgb(22.349548%, 57.249451%, 100%)" offset="1"/></linearGradient><clipPath id="a189086534"><rect x="0" width="375" y="0" height="375"/></clipPath><clipPath id="31f1c95a1e"><rect x="0" width="375" y="0" height="375"/></clipPath><clipPath id="34cac85b96"><rect x="0" width="375" y="0" height="375"/></clipPath><mask id="5abcb17f9b"><g filter="url(#9e17402ca1)"><g transform="matrix(1, 0, 0, 1, 0, 0)"><g clip-path="url(#34cac85b96)"><g transform="matrix(1, 0, 0, 1, 0, 0)"><g clip-path="url(#31f1c95a1e)"><g fill="#000000" fill-opacity="1"><g transform="translate(69.139006, 108.032274)"><g><path d="M 58.140625 -80.828125 C 70.273438 -80.828125 79.414062 -78.5 85.5625 -73.84375 C 91.71875 -69.195312 94.796875 -62.382812 94.796875 -53.40625 C 94.796875 -48.957031 93.984375 -43.816406 92.359375 -37.984375 C 89.691406 -28.597656 86.09375 -21.15625 81.5625 -15.65625 C 77.03125 -10.15625 71.0625 -6.148438 63.65625 -3.640625 C 56.257812 -1.128906 46.773438 0.0820312 35.203125 0 L 2.1875 -0.125 C 0.488281 -0.125 -0.820312 -0.40625 -1.75 -0.96875 C -2.6875 -1.539062 -3.15625 -2.3125 -3.15625 -3.28125 C -3.15625 -3.757812 -3.035156 -4.285156 -2.796875 -4.859375 C -2.546875 -5.585938 -2.195312 -6.113281 -1.75 -6.4375 C -1.3125 -6.757812 -0.644531 -7.203125 0.25 -7.765625 C 1.539062 -8.492188 2.566406 -9.300781 3.328125 -10.1875 C 4.097656 -11.082031 4.769531 -12.5 5.34375 -14.4375 L 20.140625 -66.640625 C 20.472656 -67.691406 20.640625 -68.703125 20.640625 -69.671875 C 20.640625 -70.554688 20.492188 -71.300781 20.203125 -71.90625 C 19.921875 -72.519531 19.539062 -73.226562 19.0625 -74.03125 C 18.332031 -75.082031 17.96875 -75.9375 17.96875 -76.59375 C 17.96875 -76.832031 18.046875 -77.273438 18.203125 -77.921875 C 18.523438 -78.972656 19.234375 -79.71875 20.328125 -80.15625 C 21.421875 -80.601562 23.101562 -80.828125 25.375 -80.828125 Z M 61.296875 -40.65625 C 63.398438 -48.257812 64.453125 -54.25 64.453125 -58.625 C 64.453125 -62.914062 63.5625 -65.867188 61.78125 -67.484375 C 60 -69.097656 57.453125 -69.90625 54.140625 -69.90625 L 51.46875 -69.90625 L 35.078125 -10.921875 L 37.984375 -10.921875 C 41.710938 -10.921875 44.847656 -11.707031 47.390625 -13.28125 C 49.941406 -14.863281 52.3125 -17.78125 54.5 -22.03125 C 56.6875 -26.28125 58.953125 -32.488281 61.296875 -40.65625 Z M 61.296875 -40.65625 "/></g></g></g><g fill="#000000" fill-opacity="1"><g transform="translate(162.846049, 108.032274)"><g><path d="M 43.328125 -64.203125 C 52.628906 -64.203125 60.070312 -62.484375 65.65625 -59.046875 C 71.238281 -55.609375 74.03125 -50.367188 74.03125 -43.328125 C 74.03125 -40.660156 73.546875 -37.628906 72.578125 -34.234375 L 67.609375 -17.484375 C 67.523438 -17.160156 67.484375 -16.753906 67.484375 -16.265625 C 67.484375 -14.972656 68.007812 -14.328125 69.0625 -14.328125 C 70.03125 -14.328125 70.859375 -14.75 71.546875 -15.59375 C 72.234375 -16.445312 72.703125 -16.875 72.953125 -16.875 C 73.347656 -16.875 73.6875 -16.585938 73.96875 -16.015625 C 74.257812 -15.453125 74.40625 -14.804688 74.40625 -14.078125 C 74.488281 -11.890625 73.660156 -9.660156 71.921875 -7.390625 C 70.179688 -5.128906 67.851562 -3.269531 64.9375 -1.8125 C 62.019531 -0.363281 58.820312 0.359375 55.34375 0.359375 C 51.132812 0.359375 47.53125 -0.40625 44.53125 -1.9375 C 41.539062 -3.476562 39.484375 -5.742188 38.359375 -8.734375 C 35.929688 -5.828125 33.054688 -3.582031 29.734375 -2 C 26.421875 -0.425781 22.863281 0.359375 19.0625 0.359375 C 14.769531 0.359375 11.164062 -0.46875 8.25 -2.125 C 5.34375 -3.78125 3.179688 -5.921875 1.765625 -8.546875 C 0.347656 -11.179688 -0.359375 -13.957031 -0.359375 -16.875 C -0.359375 -18.164062 -0.238281 -19.421875 0 -20.640625 C 1.289062 -26.222656 4.097656 -30.425781 8.421875 -33.25 C 12.753906 -36.082031 17.914062 -37.5 23.90625 -37.5 C 30.625 -37.5 37.21875 -36.445312 43.6875 -34.34375 L 46.734375 -42.359375 C 47.785156 -45.753906 48.3125 -48.382812 48.3125 -50.25 C 48.226562 -52.1875 47.578125 -53.640625 46.359375 -54.609375 C 45.148438 -55.585938 43.289062 -56.078125 40.78125 -56.078125 C 41.269531 -54.785156 41.515625 -53.445312 41.515625 -52.0625 C 41.515625 -49.070312 40.378906 -46.484375 38.109375 -44.296875 C 35.847656 -42.117188 32.613281 -41.03125 28.40625 -41.03125 C 24.4375 -41.03125 21.335938 -41.898438 19.109375 -43.640625 C 16.890625 -45.378906 15.78125 -47.539062 15.78125 -50.125 C 15.78125 -54.175781 18.046875 -57.535156 22.578125 -60.203125 C 27.109375 -62.867188 34.023438 -64.203125 43.328125 -64.203125 Z M 36.53125 -27.4375 C 34.269531 -27.4375 32.429688 -26.566406 31.015625 -24.828125 C 29.597656 -23.085938 28.890625 -21.203125 28.890625 -19.171875 C 28.890625 -17.878906 29.191406 -16.828125 29.796875 -16.015625 C 30.398438 -15.210938 31.269531 -14.8125 32.40625 -14.8125 C 33.457031 -14.8125 34.609375 -15.234375 35.859375 -16.078125 C 37.117188 -16.929688 38.03125 -18.207031 38.59375 -19.90625 L 41.140625 -27.0625 C 39.765625 -27.3125 38.226562 -27.4375 36.53125 -27.4375 Z M 36.53125 -27.4375 "/></g></g></g><g fill="#000000" fill-opacity="1"><g transform="translate(239.802336, 108.032274)"><g><path d="M 64.328125 -64.203125 C 67.890625 -64.203125 70.742188 -62.765625 72.890625 -59.890625 C 75.035156 -57.023438 76.109375 -53.125 76.109375 -48.1875 C 76.109375 -43.894531 75.335938 -39.28125 73.796875 -34.34375 C 70.804688 -24.394531 66.007812 -15.007812 59.40625 -6.1875 C 52.8125 2.632812 45.242188 9.710938 36.703125 15.046875 C 28.171875 20.390625 19.660156 23.0625 11.171875 23.0625 C 6.960938 23.0625 3.335938 22.332031 0.296875 20.875 C -2.734375 19.414062 -5.035156 17.472656 -6.609375 15.046875 C -8.191406 12.617188 -8.984375 10.03125 -8.984375 7.28125 C -8.984375 6.070312 -8.78125 4.738281 -8.375 3.28125 C -7.644531 1.007812 -6.429688 -0.726562 -4.734375 -1.9375 C -3.035156 -3.15625 -1.015625 -3.765625 1.328125 -3.765625 C 5.054688 -3.765625 8.113281 -2.488281 10.5 0.0625 C 12.882812 2.613281 14.398438 6.113281 15.046875 10.5625 C 20.222656 10.320312 25 8.097656 29.375 3.890625 C 25.25 3.160156 22.191406 1.765625 20.203125 -0.296875 C 18.222656 -2.367188 16.867188 -5.585938 16.140625 -9.953125 L 11.28125 -39.6875 C 11.039062 -41.226562 10.695312 -42.300781 10.25 -42.90625 C 9.8125 -43.507812 9.226562 -43.8125 8.5 -43.8125 C 7.925781 -43.8125 7.253906 -43.523438 6.484375 -42.953125 C 5.722656 -42.390625 5.179688 -42.109375 4.859375 -42.109375 C 4.210938 -42.109375 3.890625 -42.800781 3.890625 -44.1875 C 3.890625 -45.3125 4.085938 -46.523438 4.484375 -47.828125 C 5.941406 -52.429688 8.65625 -56.332031 12.625 -59.53125 C 16.59375 -62.726562 21.203125 -64.328125 26.453125 -64.328125 C 31.640625 -64.328125 35.460938 -62.789062 37.921875 -59.71875 C 40.390625 -56.644531 41.988281 -51.910156 42.71875 -45.515625 L 46.359375 -18.8125 C 46.609375 -16.789062 47.335938 -15.78125 48.546875 -15.78125 C 50.003906 -15.78125 51.703125 -17.09375 53.640625 -19.71875 C 55.585938 -22.351562 57.492188 -26.097656 59.359375 -30.953125 C 56.929688 -33.140625 55.066406 -35.644531 53.765625 -38.46875 C 52.472656 -41.300781 51.828125 -44.335938 51.828125 -47.578125 C 51.828125 -50.085938 52.148438 -52.351562 52.796875 -54.375 C 53.765625 -57.613281 55.28125 -60.0625 57.34375 -61.71875 C 59.40625 -63.375 61.734375 -64.203125 64.328125 -64.203125 Z M 64.328125 -64.203125 "/></g></g></g></g></g></g></g></g></mask><clipPath id="c4342ddb74"><path d="M 0 0 L 375 0 L 375 375 L 0 375 Z M 0 0 " clip-rule="nonzero"/></clipPath><clipPath id="1810eb3248"><rect x="0" width="375" y="0" height="375"/></clipPath><clipPath id="de9ab12400"><rect x="0" width="375" y="0" height="375"/></clipPath><clipPath id="582bb74230"><path d="M 0 0 L 375 0 L 375 375 L 0 375 Z M 0 0 " clip-rule="nonzero"/></clipPath><clipPath id="8f1737b799"><rect x="0" width="375" y="0" height="375"/></clipPath><clipPath id="c8a7a73725"><rect x="0" width="375" y="0" height="375"/></clipPath><clipPath id="8cacf89b17"><rect x="0" width="375" y="0" height="375"/></clipPath><mask id="8d972e737c"><g filter="url(#9e17402ca1)"><g transform="matrix(1, 0, 0, 1, 0, 0)"><g clip-path="url(#8cacf89b17)"><g transform="matrix(1, 0, 0, 1, 0, 0)"><g clip-path="url(#c8a7a73725)"><g fill="#000000" fill-opacity="1"><g transform="translate(69.139006, 222.38824)"><g><path d="M 68.8125 -80.828125 C 74.320312 -80.828125 79.117188 -80 83.203125 -78.34375 C 87.285156 -76.6875 90.398438 -74.421875 92.546875 -71.546875 C 94.691406 -68.671875 95.765625 -65.375 95.765625 -61.65625 C 95.765625 -59.550781 95.484375 -57.609375 94.921875 -55.828125 C 92.566406 -47.660156 85.804688 -42.484375 74.640625 -40.296875 C 78.523438 -39.160156 81.597656 -37.273438 83.859375 -34.640625 C 86.128906 -32.015625 87.265625 -28.757812 87.265625 -24.875 C 87.265625 -23.101562 86.941406 -21.003906 86.296875 -18.578125 C 84.515625 -12.265625 80.929688 -7.585938 75.546875 -4.546875 C 70.171875 -1.515625 62.546875 0 52.671875 0 L 2.1875 0 C 0.488281 0 -0.820312 -0.28125 -1.75 -0.84375 C -2.6875 -1.414062 -3.15625 -2.1875 -3.15625 -3.15625 C -3.15625 -3.644531 -3.035156 -4.171875 -2.796875 -4.734375 C -2.472656 -5.617188 -1.945312 -6.304688 -1.21875 -6.796875 C -0.488281 -7.285156 -0.0390625 -7.566406 0.125 -7.640625 C 1.414062 -8.453125 2.460938 -9.28125 3.265625 -10.125 C 4.078125 -10.976562 4.769531 -12.378906 5.34375 -14.328125 L 20.140625 -66.640625 C 20.472656 -67.691406 20.640625 -68.703125 20.640625 -69.671875 C 20.640625 -70.554688 20.492188 -71.300781 20.203125 -71.90625 C 19.921875 -72.519531 19.539062 -73.226562 19.0625 -74.03125 C 18.332031 -75.082031 17.96875 -75.9375 17.96875 -76.59375 C 17.96875 -76.832031 18.046875 -77.273438 18.203125 -77.921875 C 18.523438 -78.972656 19.234375 -79.71875 20.328125 -80.15625 C 21.421875 -80.601562 23.101562 -80.828125 25.375 -80.828125 Z M 63.359375 -58.625 C 63.921875 -60.40625 64.203125 -62.0625 64.203125 -63.59375 C 64.203125 -67.800781 61.816406 -69.90625 57.046875 -69.90625 L 51.578125 -69.90625 L 45.15625 -47.21875 L 50.484375 -47.21875 C 53.890625 -47.21875 56.582031 -48.046875 58.5625 -49.703125 C 60.539062 -51.359375 62.140625 -54.332031 63.359375 -58.625 Z M 54.5 -22.9375 C 55.0625 -24.882812 55.34375 -26.664062 55.34375 -28.28125 C 55.34375 -32.644531 52.835938 -34.828125 47.828125 -34.828125 L 41.75 -34.828125 L 34.828125 -10.921875 L 41.03125 -10.921875 C 44.507812 -10.921875 47.300781 -11.789062 49.40625 -13.53125 C 51.507812 -15.269531 53.207031 -18.40625 54.5 -22.9375 Z M 54.5 -22.9375 "/></g></g></g><g fill="#000000" fill-opacity="1"><g transform="translate(161.510834, 222.38824)"><g><path d="M 64.328125 -64.203125 C 67.890625 -64.203125 70.742188 -62.765625 72.890625 -59.890625 C 75.035156 -57.023438 76.109375 -53.125 76.109375 -48.1875 C 76.109375 -43.894531 75.335938 -39.28125 73.796875 -34.34375 C 70.804688 -24.394531 66.007812 -15.007812 59.40625 -6.1875 C 52.8125 2.632812 45.242188 9.710938 36.703125 15.046875 C 28.171875 20.390625 19.660156 23.0625 11.171875 23.0625 C 6.960938 23.0625 3.335938 22.332031 0.296875 20.875 C -2.734375 19.414062 -5.035156 17.472656 -6.609375 15.046875 C -8.191406 12.617188 -8.984375 10.03125 -8.984375 7.28125 C -8.984375 6.070312 -8.78125 4.738281 -8.375 3.28125 C -7.644531 1.007812 -6.429688 -0.726562 -4.734375 -1.9375 C -3.035156 -3.15625 -1.015625 -3.765625 1.328125 -3.765625 C 5.054688 -3.765625 8.113281 -2.488281 10.5 0.0625 C 12.882812 2.613281 14.398438 6.113281 15.046875 10.5625 C 20.222656 10.320312 25 8.097656 29.375 3.890625 C 25.25 3.160156 22.191406 1.765625 20.203125 -0.296875 C 18.222656 -2.367188 16.867188 -5.585938 16.140625 -9.953125 L 11.28125 -39.6875 C 11.039062 -41.226562 10.695312 -42.300781 10.25 -42.90625 C 9.8125 -43.507812 9.226562 -43.8125 8.5 -43.8125 C 7.925781 -43.8125 7.253906 -43.523438 6.484375 -42.953125 C 5.722656 -42.390625 5.179688 -42.109375 4.859375 -42.109375 C 4.210938 -42.109375 3.890625 -42.800781 3.890625 -44.1875 C 3.890625 -45.3125 4.085938 -46.523438 4.484375 -47.828125 C 5.941406 -52.429688 8.65625 -56.332031 12.625 -59.53125 C 16.59375 -62.726562 21.203125 -64.328125 26.453125 -64.328125 C 31.640625 -64.328125 35.460938 -62.789062 37.921875 -59.71875 C 40.390625 -56.644531 41.988281 -51.910156 42.71875 -45.515625 L 46.359375 -18.8125 C 46.609375 -16.789062 47.335938 -15.78125 48.546875 -15.78125 C 50.003906 -15.78125 51.703125 -17.09375 53.640625 -19.71875 C 55.585938 -22.351562 57.492188 -26.097656 59.359375 -30.953125 C 56.929688 -33.140625 55.066406 -35.644531 53.765625 -38.46875 C 52.472656 -41.300781 51.828125 -44.335938 51.828125 -47.578125 C 51.828125 -50.085938 52.148438 -52.351562 52.796875 -54.375 C 53.765625 -57.613281 55.28125 -60.0625 57.34375 -61.71875 C 59.40625 -63.375 61.734375 -64.203125 64.328125 -64.203125 Z M 64.328125 -64.203125 "/></g></g></g></g></g></g></g></g></mask><clipPath id="c35329613e"><path d="M 0 0 L 375 0 L 375 375 L 0 375 Z M 0 0 " clip-rule="nonzero"/></clipPath><clipPath id="3db5c5e006"><rect x="0" width="375" y="0" height="375"/></clipPath><clipPath id="93ef0c8799"><rect x="0" width="375" y="0" height="375"/></clipPath><clipPath id="e20f80d142"><path d="M 0 0 L 375 0 L 375 375 L 0 375 Z M 0 0 " clip-rule="nonzero"/></clipPath><clipPath id="664d8d3b4d"><rect x="0" width="375" y="0" height="375"/></clipPath><clipPath id="3e447b1f77"><rect x="0" width="375" y="0" height="375"/></clipPath><clipPath id="9cd7f29e37"><rect x="0" width="375" y="0" height="375"/></clipPath><mask id="c8d800fac6"><g filter="url(#9e17402ca1)"><g transform="matrix(1, 0, 0, 1, 0, 0)"><g clip-path="url(#9cd7f29e37)"><g transform="matrix(1, 0, 0, 1, 0, 0)"><g clip-path="url(#3e447b1f77)"><g fill="#000000" fill-opacity="1"><g transform="translate(69.139006, 337.713324)"><g><path d="M 58.140625 -80.828125 C 70.273438 -80.828125 79.414062 -78.5 85.5625 -73.84375 C 91.71875 -69.195312 94.796875 -62.382812 94.796875 -53.40625 C 94.796875 -48.957031 93.984375 -43.816406 92.359375 -37.984375 C 89.691406 -28.597656 86.09375 -21.15625 81.5625 -15.65625 C 77.03125 -10.15625 71.0625 -6.148438 63.65625 -3.640625 C 56.257812 -1.128906 46.773438 0.0820312 35.203125 0 L 2.1875 -0.125 C 0.488281 -0.125 -0.820312 -0.40625 -1.75 -0.96875 C -2.6875 -1.539062 -3.15625 -2.3125 -3.15625 -3.28125 C -3.15625 -3.757812 -3.035156 -4.285156 -2.796875 -4.859375 C -2.546875 -5.585938 -2.195312 -6.113281 -1.75 -6.4375 C -1.3125 -6.757812 -0.644531 -7.203125 0.25 -7.765625 C 1.539062 -8.492188 2.566406 -9.300781 3.328125 -10.1875 C 4.097656 -11.082031 4.769531 -12.5 5.34375 -14.4375 L 20.140625 -66.640625 C 20.472656 -67.691406 20.640625 -68.703125 20.640625 -69.671875 C 20.640625 -70.554688 20.492188 -71.300781 20.203125 -71.90625 C 19.921875 -72.519531 19.539062 -73.226562 19.0625 -74.03125 C 18.332031 -75.082031 17.96875 -75.9375 17.96875 -76.59375 C 17.96875 -76.832031 18.046875 -77.273438 18.203125 -77.921875 C 18.523438 -78.972656 19.234375 -79.71875 20.328125 -80.15625 C 21.421875 -80.601562 23.101562 -80.828125 25.375 -80.828125 Z M 61.296875 -40.65625 C 63.398438 -48.257812 64.453125 -54.25 64.453125 -58.625 C 64.453125 -62.914062 63.5625 -65.867188 61.78125 -67.484375 C 60 -69.097656 57.453125 -69.90625 54.140625 -69.90625 L 51.46875 -69.90625 L 35.078125 -10.921875 L 37.984375 -10.921875 C 41.710938 -10.921875 44.847656 -11.707031 47.390625 -13.28125 C 49.941406 -14.863281 52.3125 -17.78125 54.5 -22.03125 C 56.6875 -26.28125 58.953125 -32.488281 61.296875 -40.65625 Z M 61.296875 -40.65625 "/></g></g></g><g fill="#000000" fill-opacity="1"><g transform="translate(162.846049, 337.713324)"><g><path d="M 43.328125 -64.203125 C 52.628906 -64.203125 60.070312 -62.484375 65.65625 -59.046875 C 71.238281 -55.609375 74.03125 -50.367188 74.03125 -43.328125 C 74.03125 -40.660156 73.546875 -37.628906 72.578125 -34.234375 L 67.609375 -17.484375 C 67.523438 -17.160156 67.484375 -16.753906 67.484375 -16.265625 C 67.484375 -14.972656 68.007812 -14.328125 69.0625 -14.328125 C 70.03125 -14.328125 70.859375 -14.75 71.546875 -15.59375 C 72.234375 -16.445312 72.703125 -16.875 72.953125 -16.875 C 73.347656 -16.875 73.6875 -16.585938 73.96875 -16.015625 C 74.257812 -15.453125 74.40625 -14.804688 74.40625 -14.078125 C 74.488281 -11.890625 73.660156 -9.660156 71.921875 -7.390625 C 70.179688 -5.128906 67.851562 -3.269531 64.9375 -1.8125 C 62.019531 -0.363281 58.820312 0.359375 55.34375 0.359375 C 51.132812 0.359375 47.53125 -0.40625 44.53125 -1.9375 C 41.539062 -3.476562 39.484375 -5.742188 38.359375 -8.734375 C 35.929688 -5.828125 33.054688 -3.582031 29.734375 -2 C 26.421875 -0.425781 22.863281 0.359375 19.0625 0.359375 C 14.769531 0.359375 11.164062 -0.46875 8.25 -2.125 C 5.34375 -3.78125 3.179688 -5.921875 1.765625 -8.546875 C 0.347656 -11.179688 -0.359375 -13.957031 -0.359375 -16.875 C -0.359375 -18.164062 -0.238281 -19.421875 0 -20.640625 C 1.289062 -26.222656 4.097656 -30.425781 8.421875 -33.25 C 12.753906 -36.082031 17.914062 -37.5 23.90625 -37.5 C 30.625 -37.5 37.21875 -36.445312 43.6875 -34.34375 L 46.734375 -42.359375 C 47.785156 -45.753906 48.3125 -48.382812 48.3125 -50.25 C 48.226562 -52.1875 47.578125 -53.640625 46.359375 -54.609375 C 45.148438 -55.585938 43.289062 -56.078125 40.78125 -56.078125 C 41.269531 -54.785156 41.515625 -53.445312 41.515625 -52.0625 C 41.515625 -49.070312 40.378906 -46.484375 38.109375 -44.296875 C 35.847656 -42.117188 32.613281 -41.03125 28.40625 -41.03125 C 24.4375 -41.03125 21.335938 -41.898438 19.109375 -43.640625 C 16.890625 -45.378906 15.78125 -47.539062 15.78125 -50.125 C 15.78125 -54.175781 18.046875 -57.535156 22.578125 -60.203125 C 27.109375 -62.867188 34.023438 -64.203125 43.328125 -64.203125 Z M 36.53125 -27.4375 C 34.269531 -27.4375 32.429688 -26.566406 31.015625 -24.828125 C 29.597656 -23.085938 28.890625 -21.203125 28.890625 -19.171875 C 28.890625 -17.878906 29.191406 -16.828125 29.796875 -16.015625 C 30.398438 -15.210938 31.269531 -14.8125 32.40625 -14.8125 C 33.457031 -14.8125 34.609375 -15.234375 35.859375 -16.078125 C 37.117188 -16.929688 38.03125 -18.207031 38.59375 -19.90625 L 41.140625 -27.0625 C 39.765625 -27.3125 38.226562 -27.4375 36.53125 -27.4375 Z M 36.53125 -27.4375 "/></g></g></g><g fill="#000000" fill-opacity="1"><g transform="translate(239.802336, 337.713324)"><g><path d="M 64.328125 -64.203125 C 67.890625 -64.203125 70.742188 -62.765625 72.890625 -59.890625 C 75.035156 -57.023438 76.109375 -53.125 76.109375 -48.1875 C 76.109375 -43.894531 75.335938 -39.28125 73.796875 -34.34375 C 70.804688 -24.394531 66.007812 -15.007812 59.40625 -6.1875 C 52.8125 2.632812 45.242188 9.710938 36.703125 15.046875 C 28.171875 20.390625 19.660156 23.0625 11.171875 23.0625 C 6.960938 23.0625 3.335938 22.332031 0.296875 20.875 C -2.734375 19.414062 -5.035156 17.472656 -6.609375 15.046875 C -8.191406 12.617188 -8.984375 10.03125 -8.984375 7.28125 C -8.984375 6.070312 -8.78125 4.738281 -8.375 3.28125 C -7.644531 1.007812 -6.429688 -0.726562 -4.734375 -1.9375 C -3.035156 -3.15625 -1.015625 -3.765625 1.328125 -3.765625 C 5.054688 -3.765625 8.113281 -2.488281 10.5 0.0625 C 12.882812 2.613281 14.398438 6.113281 15.046875 10.5625 C 20.222656 10.320312 25 8.097656 29.375 3.890625 C 25.25 3.160156 22.191406 1.765625 20.203125 -0.296875 C 18.222656 -2.367188 16.867188 -5.585938 16.140625 -9.953125 L 11.28125 -39.6875 C 11.039062 -41.226562 10.695312 -42.300781 10.25 -42.90625 C 9.8125 -43.507812 9.226562 -43.8125 8.5 -43.8125 C 7.925781 -43.8125 7.253906 -43.523438 6.484375 -42.953125 C 5.722656 -42.390625 5.179688 -42.109375 4.859375 -42.109375 C 4.210938 -42.109375 3.890625 -42.800781 3.890625 -44.1875 C 3.890625 -45.3125 4.085938 -46.523438 4.484375 -47.828125 C 5.941406 -52.429688 8.65625 -56.332031 12.625 -59.53125 C 16.59375 -62.726562 21.203125 -64.328125 26.453125 -64.328125 C 31.640625 -64.328125 35.460938 -62.789062 37.921875 -59.71875 C 40.390625 -56.644531 41.988281 -51.910156 42.71875 -45.515625 L 46.359375 -18.8125 C 46.609375 -16.789062 47.335938 -15.78125 48.546875 -15.78125 C 50.003906 -15.78125 51.703125 -17.09375 53.640625 -19.71875 C 55.585938 -22.351562 57.492188 -26.097656 59.359375 -30.953125 C 56.929688 -33.140625 55.066406 -35.644531 53.765625 -38.46875 C 52.472656 -41.300781 51.828125 -44.335938 51.828125 -47.578125 C 51.828125 -50.085938 52.148438 -52.351562 52.796875 -54.375 C 53.765625 -57.613281 55.28125 -60.0625 57.34375 -61.71875 C 59.40625 -63.375 61.734375 -64.203125 64.328125 -64.203125 Z M 64.328125 -64.203125 "/></g></g></g></g></g></g></g></g></mask><clipPath id="3e34d13e05"><path d="M 0 0 L 375 0 L 375 375 L 0 375 Z M 0 0 " clip-rule="nonzero"/></clipPath><clipPath id="230acc61c9"><rect x="0" width="375" y="0" height="375"/></clipPath><clipPath id="7bb28a3650"><rect x="0" width="375" y="0" height="375"/></clipPath><clipPath id="c8dad547a3"><rect x="0" width="375" y="0" height="375"/></clipPath></defs><g transform="matrix(1, 0, 0, 1, 0, 0)"><g clip-path="url(#c8dad547a3)"><g fill="#ffde59" fill-opacity="1"><g transform="translate(69.139006, 108.032274)"><g><path d="M 58.140625 -85.390625 C 71.300781 -85.390625 81.359375 -82.757812 88.320312 -77.492188 C 95.675781 -71.925781 99.351562 -63.898438 99.351562 -53.40625 C 99.351562 -48.542969 98.488281 -43 96.757812 -36.773438 C 93.910156 -26.757812 90.015625 -18.757812 85.082031 -12.765625 C 80 -6.59375 73.347656 -2.117188 65.125 0.667969 C 57.238281 3.34375 47.25 4.636719 35.167969 4.550781 L 2.167969 4.429688 C -0.371094 4.429688 -2.46875 3.925781 -4.125 2.917969 C -5.226562 2.25 -6.085938 1.402344 -6.699219 0.382812 C -7.371094 -0.722656 -7.707031 -1.945312 -7.707031 -3.277344 C -7.707031 -4.386719 -7.464844 -5.507812 -6.976562 -6.648438 L -2.792969 -4.855469 L -7.109375 -6.292969 C -6.558594 -7.945312 -5.667969 -9.21875 -4.4375 -10.113281 C -3.917969 -10.492188 -3.171875 -10.992188 -2.199219 -11.609375 L -2.097656 -11.675781 L -1.988281 -11.734375 C -1.15625 -12.203125 -0.527344 -12.683594 -0.105469 -13.171875 C 0.230469 -13.5625 0.589844 -14.410156 0.972656 -15.71875 L 15.769531 -67.882812 C 15.980469 -68.5625 16.082031 -69.160156 16.082031 -69.671875 C 16.082031 -69.832031 16.074219 -69.960938 16.054688 -70.054688 C 16.054688 -70.070312 16.050781 -70.074219 16.050781 -70.074219 C 16.058594 -70.050781 16.070312 -70.023438 16.085938 -69.992188 C 15.867188 -70.457031 15.558594 -71.027344 15.152344 -71.699219 L 19.058594 -74.042969 L 15.3125 -71.453125 C 14.046875 -73.285156 13.414062 -74.996094 13.414062 -76.59375 C 13.414062 -77.207031 13.539062 -78.023438 13.792969 -79.03125 L 13.820312 -79.148438 L 13.855469 -79.265625 C 14.601562 -81.691406 16.1875 -83.402344 18.613281 -84.386719 C 20.257812 -85.058594 22.507812 -85.390625 25.367188 -85.390625 Z M 58.140625 -76.289062 L 25.367188 -76.289062 C 23.699219 -76.289062 22.589844 -76.179688 22.050781 -75.957031 C 22.109375 -75.984375 22.191406 -76.046875 22.289062 -76.148438 C 22.421875 -76.289062 22.511719 -76.4375 22.558594 -76.589844 L 18.207031 -77.925781 L 22.625 -76.824219 C 22.566406 -76.59375 22.527344 -76.417969 22.503906 -76.292969 L 22.5 -76.28125 C 22.511719 -76.371094 22.515625 -76.476562 22.515625 -76.59375 C 22.515625 -76.890625 22.484375 -77.113281 22.421875 -77.261719 C 22.484375 -77.117188 22.609375 -76.910156 22.800781 -76.632812 L 22.882812 -76.511719 L 22.960938 -76.386719 C 23.527344 -75.441406 23.984375 -74.59375 24.335938 -73.84375 C 24.902344 -72.625 25.1875 -71.238281 25.1875 -69.671875 C 25.1875 -68.246094 24.96875 -66.820312 24.527344 -65.394531 L 9.710938 -13.171875 C 8.960938 -10.59375 7.984375 -8.609375 6.78125 -7.222656 C 5.667969 -5.929688 4.230469 -4.789062 2.472656 -3.800781 L 0.242188 -7.769531 L 2.6875 -3.929688 C 1.875 -3.414062 1.285156 -3.019531 0.917969 -2.753906 C 1.144531 -2.917969 1.324219 -3.101562 1.457031 -3.304688 C 1.488281 -3.355469 1.515625 -3.398438 1.53125 -3.433594 L 1.527344 -3.414062 L 1.464844 -3.234375 L 1.390625 -3.0625 C 1.382812 -3.035156 1.371094 -3.015625 1.367188 -3 C 1.367188 -3 1.367188 -3.003906 1.371094 -3.011719 C 1.386719 -3.085938 1.394531 -3.175781 1.394531 -3.277344 C 1.394531 -3.636719 1.292969 -3.988281 1.085938 -4.328125 C 0.933594 -4.578125 0.773438 -4.757812 0.605469 -4.859375 C 0.632812 -4.84375 0.726562 -4.816406 0.882812 -4.785156 C 1.222656 -4.710938 1.664062 -4.671875 2.203125 -4.671875 L 35.234375 -4.550781 C 46.292969 -4.472656 55.285156 -5.609375 62.203125 -7.953125 C 68.789062 -10.183594 74.074219 -13.71875 78.054688 -18.550781 C 82.183594 -23.566406 85.492188 -30.453125 87.984375 -39.210938 C 89.492188 -44.636719 90.246094 -49.371094 90.246094 -53.40625 C 90.246094 -60.882812 87.773438 -66.488281 82.828125 -70.230469 C 77.492188 -74.269531 69.261719 -76.289062 58.140625 -76.289062 Z M 56.910156 -41.875 C 58.90625 -49.085938 59.902344 -54.667969 59.902344 -58.628906 C 59.902344 -60.324219 59.742188 -61.699219 59.429688 -62.746094 C 59.226562 -63.417969 58.988281 -63.875 58.722656 -64.121094 C 57.808594 -64.949219 56.28125 -65.363281 54.136719 -65.363281 L 51.464844 -65.363281 L 51.464844 -69.917969 L 55.851562 -68.699219 L 39.464844 -9.707031 L 35.078125 -10.925781 L 35.078125 -15.476562 L 37.992188 -15.476562 C 40.851562 -15.476562 43.1875 -16.039062 45.003906 -17.160156 C 46.835938 -18.296875 48.652344 -20.613281 50.453125 -24.113281 C 52.5 -28.097656 54.65625 -34.03125 56.921875 -41.917969 Z M 65.671875 -39.40625 C 63.246094 -30.949219 60.871094 -24.460938 58.546875 -19.949219 C 55.976562 -14.953125 53.0625 -11.441406 49.796875 -9.421875 C 46.511719 -7.386719 42.578125 -6.371094 37.992188 -6.371094 L 29.089844 -6.371094 L 48.007812 -74.46875 L 54.136719 -74.46875 C 58.628906 -74.46875 62.195312 -73.265625 64.84375 -70.855469 C 67.617188 -68.335938 69.003906 -64.257812 69.003906 -58.628906 C 69.003906 -53.847656 67.898438 -47.453125 65.683594 -39.449219 Z M 65.671875 -39.40625 "/></g></g></g><g fill="#ffde59" fill-opacity="1"><g transform="translate(162.846049, 108.032274)"><g><path d="M 43.332031 -68.761719 C 53.5 -68.761719 61.738281 -66.816406 68.054688 -62.929688 C 71.546875 -60.777344 74.183594 -58.027344 75.964844 -54.683594 C 77.71875 -51.394531 78.59375 -47.613281 78.59375 -43.332031 C 78.59375 -40.238281 78.050781 -36.785156 76.964844 -32.980469 L 71.972656 -16.183594 L 67.609375 -17.480469 L 72.027344 -16.375 C 72.039062 -16.425781 72.046875 -16.460938 72.046875 -16.480469 C 72.042969 -16.429688 72.039062 -16.355469 72.039062 -16.265625 C 72.039062 -16.34375 72.019531 -16.457031 71.980469 -16.605469 C 71.878906 -16.984375 71.691406 -17.339844 71.414062 -17.679688 C 71.058594 -18.117188 70.621094 -18.441406 70.105469 -18.65625 C 69.746094 -18.800781 69.402344 -18.875 69.066406 -18.875 C 68.820312 -18.875 68.578125 -18.8125 68.339844 -18.691406 C 68.183594 -18.613281 68.078125 -18.535156 68.015625 -18.460938 C 68.503906 -19.0625 68.949219 -19.546875 69.351562 -19.914062 C 70.453125 -20.921875 71.652344 -21.425781 72.949219 -21.425781 C 74.242188 -21.425781 75.394531 -21.007812 76.40625 -20.171875 C 77.074219 -19.621094 77.625 -18.917969 78.054688 -18.058594 C 78.65625 -16.851562 78.960938 -15.523438 78.960938 -14.082031 L 74.40625 -14.082031 L 78.957031 -14.25 C 79.078125 -10.972656 77.933594 -7.765625 75.527344 -4.632812 C 73.363281 -1.8125 70.511719 0.480469 66.976562 2.25 C 63.421875 4.027344 59.546875 4.917969 55.351562 4.917969 C 50.410156 4.917969 46.113281 3.980469 42.46875 2.105469 C 38.433594 0.0351562 35.644531 -3.042969 34.097656 -7.128906 L 38.355469 -8.738281 L 41.855469 -5.824219 C 39 -2.402344 35.613281 0.242188 31.695312 2.109375 C 27.757812 3.980469 23.546875 4.917969 19.058594 4.917969 C 13.964844 4.917969 9.613281 3.886719 6 1.832031 C 2.332031 -0.257812 -0.417969 -3.003906 -2.246094 -6.398438 C -4.027344 -9.703125 -4.917969 -13.195312 -4.917969 -16.871094 C -4.917969 -18.46875 -4.765625 -20.019531 -4.464844 -21.527344 L -4.449219 -21.59375 L -4.433594 -21.664062 C -2.863281 -28.433594 0.59375 -33.570312 5.945312 -37.066406 C 11.03125 -40.394531 17.019531 -42.058594 23.914062 -42.058594 C 31.109375 -42.058594 38.171875 -40.933594 45.105469 -38.679688 L 43.699219 -34.351562 L 39.441406 -35.964844 L 42.476562 -43.976562 L 46.730469 -42.363281 L 42.382812 -43.707031 C 43.300781 -46.667969 43.757812 -48.851562 43.757812 -50.253906 L 48.308594 -50.253906 L 43.761719 -50.0625 C 43.738281 -50.625 43.660156 -50.960938 43.523438 -51.066406 C 43.421875 -51.148438 43.21875 -51.230469 42.914062 -51.308594 C 42.359375 -51.453125 41.648438 -51.527344 40.785156 -51.527344 L 40.785156 -56.078125 L 45.046875 -57.675781 C 45.726562 -55.867188 46.066406 -54 46.066406 -52.074219 C 46.066406 -47.789062 44.46875 -44.109375 41.273438 -41.027344 C 38.125 -37.992188 33.835938 -36.476562 28.402344 -36.476562 C 23.394531 -36.476562 19.363281 -37.667969 16.3125 -40.050781 C 12.921875 -42.703125 11.226562 -46.0625 11.226562 -50.128906 C 11.226562 -53.082031 12.054688 -55.78125 13.707031 -58.230469 C 15.222656 -60.476562 17.410156 -62.445312 20.265625 -64.128906 C 25.511719 -67.21875 33.199219 -68.761719 43.332031 -68.761719 Z M 43.332031 -59.660156 C 34.855469 -59.660156 28.707031 -58.535156 24.886719 -56.285156 C 21.851562 -54.492188 20.332031 -52.441406 20.332031 -50.128906 C 20.332031 -49.019531 20.863281 -48.050781 21.921875 -47.222656 C 23.324219 -46.128906 25.484375 -45.578125 28.402344 -45.578125 C 31.386719 -45.578125 33.570312 -46.246094 34.953125 -47.582031 C 36.292969 -48.871094 36.960938 -50.367188 36.960938 -52.074219 C 36.960938 -52.898438 36.816406 -53.699219 36.523438 -54.480469 L 34.214844 -60.628906 L 40.785156 -60.628906 C 44.359375 -60.628906 47.167969 -59.8125 49.210938 -58.175781 C 51.503906 -56.34375 52.71875 -53.765625 52.859375 -50.441406 L 52.863281 -50.347656 L 52.863281 -50.253906 C 52.863281 -47.933594 52.269531 -44.851562 51.082031 -41.015625 L 51.039062 -40.882812 L 46.417969 -28.679688 L 42.289062 -30.023438 C 36.273438 -31.976562 30.148438 -32.957031 23.914062 -32.957031 C 18.828125 -32.957031 14.5 -31.785156 10.929688 -29.449219 C 7.617188 -27.285156 5.453125 -24.003906 4.433594 -19.605469 L 0 -20.636719 L 4.464844 -19.742188 C 4.28125 -18.824219 4.1875 -17.867188 4.1875 -16.871094 C 4.1875 -14.722656 4.714844 -12.671875 5.769531 -10.714844 C 6.769531 -8.851562 8.351562 -7.308594 10.507812 -6.078125 C 12.722656 -4.820312 15.570312 -4.1875 19.058594 -4.1875 C 22.175781 -4.1875 25.085938 -4.828125 27.785156 -6.113281 C 30.5 -7.40625 32.859375 -9.253906 34.859375 -11.652344 L 39.855469 -17.644531 L 42.613281 -10.351562 C 43.332031 -8.449219 44.671875 -6.996094 46.625 -5.992188 C 48.96875 -4.789062 51.875 -4.1875 55.351562 -4.1875 C 58.113281 -4.1875 60.632812 -4.757812 62.902344 -5.890625 C 65.191406 -7.035156 66.992188 -8.464844 68.308594 -10.175781 C 69.382812 -11.574219 69.898438 -12.820312 69.859375 -13.910156 L 69.855469 -13.996094 L 69.855469 -14.082031 C 69.855469 -14.117188 69.855469 -14.136719 69.855469 -14.140625 C 69.863281 -14.09375 69.882812 -14.042969 69.910156 -13.988281 C 70.058594 -13.695312 70.292969 -13.414062 70.617188 -13.144531 C 71.285156 -12.59375 72.0625 -12.320312 72.949219 -12.320312 C 73.730469 -12.320312 74.4375 -12.511719 75.070312 -12.890625 C 75.242188 -12.992188 75.378906 -13.09375 75.488281 -13.191406 C 75.425781 -13.132812 75.292969 -12.980469 75.09375 -12.734375 C 73.492188 -10.757812 71.484375 -9.769531 69.066406 -9.769531 C 67.097656 -9.769531 65.523438 -10.492188 64.351562 -11.9375 C 63.40625 -13.097656 62.9375 -14.539062 62.9375 -16.265625 C 62.9375 -17.125 63.023438 -17.898438 63.195312 -18.582031 L 63.21875 -18.679688 L 68.210938 -35.480469 C 69.0625 -38.46875 69.492188 -41.089844 69.492188 -43.332031 C 69.492188 -46.09375 68.972656 -48.453125 67.933594 -50.402344 C 66.921875 -52.296875 65.371094 -53.886719 63.28125 -55.175781 C 58.429688 -58.164062 51.78125 -59.660156 43.332031 -59.660156 Z M 36.535156 -22.878906 C 35.714844 -22.878906 35.046875 -22.570312 34.542969 -21.949219 C 33.808594 -21.046875 33.441406 -20.121094 33.441406 -19.179688 C 33.441406 -18.960938 33.457031 -18.792969 33.488281 -18.679688 L 33.488281 -18.675781 C 33.476562 -18.699219 33.460938 -18.726562 33.441406 -18.753906 C 33.289062 -18.957031 33.082031 -19.121094 32.828125 -19.238281 C 32.652344 -19.320312 32.515625 -19.359375 32.410156 -19.359375 C 32.382812 -19.359375 32.363281 -19.359375 32.355469 -19.359375 C 32.386719 -19.363281 32.433594 -19.378906 32.488281 -19.398438 C 32.71875 -19.484375 32.996094 -19.632812 33.316406 -19.851562 C 33.71875 -20.125 34.039062 -20.621094 34.28125 -21.347656 L 36.859375 -28.59375 L 41.148438 -27.066406 L 40.359375 -22.585938 C 39.242188 -22.78125 37.96875 -22.878906 36.535156 -22.878906 Z M 36.535156 -31.984375 C 38.5 -31.984375 40.300781 -31.839844 41.941406 -31.550781 L 47.242188 -30.613281 L 42.917969 -18.46875 C 42.027344 -15.792969 40.527344 -13.742188 38.421875 -12.316406 C 36.394531 -10.941406 34.390625 -10.257812 32.410156 -10.257812 C 29.757812 -10.257812 27.675781 -11.269531 26.15625 -13.292969 C 24.945312 -14.910156 24.335938 -16.871094 24.335938 -19.179688 C 24.335938 -22.28125 25.386719 -25.121094 27.484375 -27.695312 C 29.808594 -30.554688 32.828125 -31.984375 36.535156 -31.984375 Z M 36.535156 -31.984375 "/></g></g></g><g fill="#ffde59" fill-opacity="1"><g transform="translate(239.802336, 108.032274)"><g><path d="M 64.332031 -68.761719 C 69.414062 -68.761719 73.484375 -66.71875 76.539062 -62.625 C 79.285156 -58.945312 80.660156 -54.132812 80.660156 -48.1875 C 80.660156 -43.4375 79.820312 -38.375 78.144531 -32.996094 C 75.007812 -22.558594 69.976562 -12.714844 63.0625 -3.464844 C 56.128906 5.808594 48.152344 13.269531 39.132812 18.910156 C 29.855469 24.714844 20.535156 27.613281 11.167969 27.613281 C 6.269531 27.613281 1.992188 26.738281 -1.667969 24.980469 C -5.46875 23.15625 -8.390625 20.671875 -10.433594 17.53125 C -12.5 14.351562 -13.535156 10.933594 -13.535156 7.28125 C -13.535156 5.65625 -13.277344 3.914062 -12.761719 2.058594 L -12.738281 1.972656 L -12.707031 1.882812 C -11.671875 -1.339844 -9.898438 -3.847656 -7.378906 -5.644531 C -4.890625 -7.425781 -1.984375 -8.316406 1.335938 -8.316406 C 6.375 -8.316406 10.535156 -6.558594 13.820312 -3.050781 C 16.859375 0.191406 18.769531 4.511719 19.554688 9.90625 L 15.050781 10.558594 L 14.839844 6.011719 C 18.875 5.824219 22.667969 4.019531 26.21875 0.605469 L 29.375 3.882812 L 28.582031 8.367188 C 23.480469 7.464844 19.597656 5.628906 16.925781 2.851562 C 14.292969 0.109375 12.535156 -3.910156 11.652344 -9.203125 L 6.796875 -38.957031 C 6.707031 -39.511719 6.613281 -39.945312 6.515625 -40.257812 C 6.488281 -40.339844 6.46875 -40.398438 6.453125 -40.429688 C 6.476562 -40.375 6.523438 -40.300781 6.585938 -40.214844 C 6.785156 -39.945312 7.054688 -39.722656 7.390625 -39.546875 C 7.753906 -39.359375 8.121094 -39.265625 8.496094 -39.265625 C 8.832031 -39.265625 9.113281 -39.316406 9.347656 -39.417969 L 9.367188 -39.421875 C 9.320312 -39.394531 9.261719 -39.355469 9.195312 -39.304688 C 7.621094 -38.148438 6.175781 -37.566406 4.855469 -37.566406 C 3.726562 -37.566406 2.707031 -37.890625 1.800781 -38.535156 C 1.027344 -39.082031 0.429688 -39.800781 0.0078125 -40.699219 C -0.441406 -41.65625 -0.667969 -42.816406 -0.667969 -44.183594 C -0.667969 -45.777344 -0.394531 -47.445312 0.144531 -49.183594 C 1.882812 -54.675781 5.089844 -59.308594 9.765625 -63.082031 C 14.566406 -66.949219 20.128906 -68.882812 26.460938 -68.882812 C 33.097656 -68.882812 38.101562 -66.78125 41.480469 -62.570312 C 44.5 -58.808594 46.421875 -53.296875 47.25 -46.035156 L 50.878906 -19.429688 C 50.910156 -19.164062 50.941406 -18.976562 50.976562 -18.875 C 50.953125 -18.953125 50.890625 -19.0625 50.789062 -19.199219 C 50.550781 -19.53125 50.234375 -19.800781 49.835938 -20.007812 C 49.421875 -20.222656 48.992188 -20.332031 48.554688 -20.332031 C 48.308594 -20.332031 48.105469 -20.296875 47.941406 -20.226562 C 47.964844 -20.238281 48.027344 -20.285156 48.132812 -20.367188 C 48.648438 -20.765625 49.269531 -21.453125 49.988281 -22.429688 C 51.6875 -24.726562 53.390625 -28.109375 55.105469 -32.582031 L 59.355469 -30.953125 L 56.3125 -27.570312 C 53.414062 -30.175781 51.1875 -33.179688 49.632812 -36.585938 C 48.0625 -40.019531 47.277344 -43.683594 47.277344 -47.582031 C 47.277344 -50.5625 47.675781 -53.292969 48.464844 -55.765625 C 49.691406 -59.851562 51.703125 -63.019531 54.5 -65.269531 C 57.398438 -67.597656 60.675781 -68.761719 64.332031 -68.761719 Z M 64.332031 -59.660156 C 62.8125 -59.660156 61.4375 -59.164062 60.203125 -58.175781 C 58.875 -57.105469 57.851562 -55.378906 57.136719 -52.992188 C 56.632812 -51.421875 56.382812 -49.617188 56.382812 -47.582031 C 56.382812 -45.003906 56.890625 -42.601562 57.910156 -40.371094 C 58.945312 -38.109375 60.441406 -36.097656 62.402344 -34.335938 L 64.726562 -32.242188 L 63.605469 -29.324219 C 61.597656 -24.082031 59.5 -19.980469 57.3125 -17.019531 C 54.460938 -13.160156 51.539062 -11.226562 48.554688 -11.226562 C 47.507812 -11.226562 46.53125 -11.460938 45.628906 -11.933594 C 44.75 -12.390625 44.003906 -13.039062 43.402344 -13.878906 C 42.582031 -15.019531 42.066406 -16.460938 41.859375 -18.199219 L 38.203125 -45.003906 C 37.574219 -50.523438 36.300781 -54.480469 34.382812 -56.871094 C 32.824219 -58.8125 30.183594 -59.78125 26.460938 -59.78125 C 22.273438 -59.78125 18.613281 -58.519531 15.480469 -55.992188 C 12.230469 -53.371094 10.015625 -50.195312 8.835938 -46.46875 C 8.570312 -45.613281 8.4375 -44.851562 8.4375 -44.183594 C 8.4375 -44.074219 8.4375 -44.011719 8.441406 -43.984375 C 8.414062 -44.15625 8.347656 -44.351562 8.246094 -44.574219 C 7.988281 -45.125 7.59375 -45.585938 7.0625 -45.964844 C 6.394531 -46.433594 5.660156 -46.671875 4.855469 -46.671875 C 4.277344 -46.671875 3.796875 -46.570312 3.414062 -46.371094 C 3.472656 -46.40625 3.601562 -46.492188 3.792969 -46.632812 C 5.367188 -47.792969 6.933594 -48.371094 8.496094 -48.371094 C 10.761719 -48.371094 12.574219 -47.449219 13.925781 -45.601562 C 14.808594 -44.398438 15.425781 -42.675781 15.78125 -40.425781 L 20.632812 -10.703125 C 21.207031 -7.257812 22.160156 -4.84375 23.492188 -3.457031 C 24.789062 -2.109375 27.011719 -1.15625 30.164062 -0.597656 L 38.976562 0.957031 L 32.53125 7.164062 C 27.339844 12.164062 21.582031 14.8125 15.265625 15.105469 L 11.140625 15.300781 L 10.546875 11.214844 C 10.035156 7.707031 8.914062 5.027344 7.175781 3.171875 C 5.6875 1.582031 3.742188 0.789062 1.335938 0.789062 C -0.0390625 0.789062 -1.179688 1.113281 -2.089844 1.761719 C -2.96875 2.390625 -3.621094 3.359375 -4.042969 4.671875 L -8.375 3.277344 L -3.988281 4.496094 C -4.285156 5.554688 -4.429688 6.484375 -4.429688 7.28125 C -4.429688 9.132812 -3.886719 10.898438 -2.796875 12.570312 C -1.683594 14.285156 0.0078125 15.6875 2.273438 16.773438 C 4.683594 17.933594 7.648438 18.511719 11.167969 18.511719 C 18.792969 18.511719 26.503906 16.070312 34.304688 11.191406 C 42.359375 6.152344 49.515625 -0.550781 55.769531 -8.917969 C 62.046875 -17.308594 66.605469 -26.238281 69.453125 -35.703125 C 70.855469 -40.199219 71.554688 -44.363281 71.554688 -48.1875 C 71.554688 -52.117188 70.785156 -55.113281 69.242188 -57.179688 C 68.007812 -58.832031 66.371094 -59.660156 64.332031 -59.660156 Z M 64.332031 -59.660156 "/></g></g></g><g fill="#ffde59" fill-opacity="1"><g transform="translate(69.139006, 222.38824)"><g><path d="M 68.824219 -85.390625 C 74.917969 -85.390625 80.285156 -84.453125 84.917969 -82.570312 C 89.789062 -80.59375 93.550781 -77.828125 96.203125 -74.277344 C 98.949219 -70.597656 100.324219 -66.390625 100.324219 -61.660156 C 100.324219 -59.085938 99.96875 -56.683594 99.257812 -54.457031 L 94.921875 -55.835938 L 99.296875 -54.578125 C 97.847656 -49.53125 95.035156 -45.40625 90.863281 -42.207031 C 86.917969 -39.1875 81.804688 -37.0625 75.523438 -35.832031 L 74.648438 -40.300781 L 75.925781 -44.667969 C 80.671875 -43.285156 84.472656 -40.9375 87.324219 -37.625 C 90.324219 -34.140625 91.824219 -29.894531 91.824219 -24.882812 C 91.824219 -22.707031 91.449219 -20.210938 90.699219 -17.398438 C 88.570312 -9.839844 84.269531 -4.234375 77.796875 -0.585938 C 71.722656 2.839844 63.347656 4.550781 52.679688 4.550781 L 2.183594 4.550781 C -0.367188 4.550781 -2.46875 4.046875 -4.125 3.039062 C -5.226562 2.371094 -6.085938 1.523438 -6.699219 0.507812 C -7.371094 -0.601562 -7.707031 -1.824219 -7.707031 -3.15625 C -7.707031 -4.265625 -7.464844 -5.386719 -6.976562 -6.527344 L -2.792969 -4.734375 L -7.070312 -6.289062 C -6.40625 -8.117188 -5.296875 -9.546875 -3.738281 -10.585938 C -2.851562 -11.175781 -2.246094 -11.554688 -1.914062 -11.71875 L 0.121094 -7.648438 L -2.292969 -11.507812 C -1.320312 -12.113281 -0.5625 -12.703125 -0.0195312 -13.273438 C 0.28125 -13.589844 0.609375 -14.363281 0.972656 -15.597656 L 15.785156 -67.929688 L 15.796875 -67.976562 C 15.988281 -68.59375 16.082031 -69.160156 16.082031 -69.671875 C 16.082031 -69.832031 16.074219 -69.960938 16.054688 -70.054688 C 16.054688 -70.070312 16.050781 -70.074219 16.050781 -70.074219 C 16.058594 -70.050781 16.070312 -70.023438 16.085938 -69.992188 C 15.867188 -70.457031 15.558594 -71.027344 15.152344 -71.699219 L 19.058594 -74.042969 L 15.3125 -71.453125 C 14.046875 -73.285156 13.414062 -74.996094 13.414062 -76.59375 C 13.414062 -77.207031 13.539062 -78.023438 13.792969 -79.03125 L 13.820312 -79.148438 L 13.855469 -79.265625 C 14.601562 -81.691406 16.1875 -83.402344 18.613281 -84.386719 C 20.257812 -85.058594 22.507812 -85.390625 25.367188 -85.390625 Z M 68.824219 -76.289062 L 25.367188 -76.289062 C 23.699219 -76.289062 22.589844 -76.179688 22.050781 -75.957031 C 22.109375 -75.984375 22.191406 -76.046875 22.289062 -76.148438 C 22.421875 -76.289062 22.511719 -76.4375 22.558594 -76.589844 L 18.207031 -77.925781 L 22.625 -76.824219 C 22.566406 -76.59375 22.527344 -76.417969 22.503906 -76.292969 L 22.5 -76.28125 C 22.511719 -76.371094 22.515625 -76.476562 22.515625 -76.59375 C 22.515625 -76.890625 22.484375 -77.113281 22.421875 -77.261719 C 22.484375 -77.117188 22.609375 -76.910156 22.800781 -76.632812 L 22.882812 -76.511719 L 22.960938 -76.386719 C 23.527344 -75.441406 23.984375 -74.59375 24.335938 -73.84375 C 24.902344 -72.625 25.1875 -71.238281 25.1875 -69.671875 C 25.1875 -68.246094 24.957031 -66.789062 24.5 -65.300781 L 20.148438 -66.640625 L 24.527344 -65.398438 L 9.710938 -13.046875 C 8.9375 -10.398438 7.890625 -8.378906 6.574219 -6.996094 C 5.5 -5.867188 4.152344 -4.800781 2.535156 -3.785156 L 2.351562 -3.671875 L 2.15625 -3.574219 C 2.222656 -3.609375 2.265625 -3.628906 2.289062 -3.644531 C 2.246094 -3.621094 2.1875 -3.582031 2.109375 -3.535156 C 1.914062 -3.410156 1.648438 -3.234375 1.3125 -3.011719 C 1.410156 -3.078125 1.46875 -3.132812 1.484375 -3.179688 L 1.441406 -3.058594 L 1.390625 -2.941406 C 1.382812 -2.914062 1.371094 -2.894531 1.367188 -2.878906 C 1.367188 -2.878906 1.367188 -2.882812 1.371094 -2.890625 C 1.386719 -2.964844 1.394531 -3.054688 1.394531 -3.15625 C 1.394531 -3.515625 1.292969 -3.867188 1.085938 -4.207031 C 0.933594 -4.457031 0.773438 -4.636719 0.605469 -4.738281 C 0.632812 -4.722656 0.726562 -4.695312 0.882812 -4.664062 C 1.222656 -4.589844 1.660156 -4.550781 2.183594 -4.550781 L 52.679688 -4.550781 C 61.753906 -4.550781 68.636719 -5.875 73.324219 -8.515625 C 77.617188 -10.9375 80.476562 -14.679688 81.90625 -19.746094 C 82.449219 -21.789062 82.722656 -23.5 82.722656 -24.882812 C 82.722656 -27.640625 81.957031 -29.90625 80.425781 -31.683594 C 78.746094 -33.632812 76.398438 -35.046875 73.375 -35.929688 L 73.777344 -44.765625 C 78.660156 -45.722656 82.511719 -47.277344 85.324219 -49.433594 C 87.90625 -51.414062 89.648438 -53.96875 90.546875 -57.09375 L 90.5625 -57.152344 L 90.582031 -57.214844 C 91.007812 -58.546875 91.21875 -60.027344 91.21875 -61.660156 C 91.21875 -64.375 90.449219 -66.765625 88.90625 -68.832031 C 87.269531 -71.027344 84.796875 -72.792969 81.496094 -74.132812 C 77.957031 -75.570312 73.734375 -76.289062 68.824219 -76.289062 Z M 59.023438 -60.007812 C 59.449219 -61.339844 59.660156 -62.539062 59.660156 -63.605469 C 59.660156 -64.335938 59.578125 -64.777344 59.410156 -64.921875 C 59.320312 -65.003906 59.148438 -65.082031 58.898438 -65.152344 C 58.421875 -65.292969 57.804688 -65.363281 57.050781 -65.363281 L 51.585938 -65.363281 L 51.585938 -69.917969 L 55.964844 -68.675781 L 49.535156 -45.976562 L 45.152344 -47.21875 L 45.152344 -51.769531 L 50.496094 -51.769531 C 52.792969 -51.769531 54.507812 -52.246094 55.644531 -53.195312 C 56.910156 -54.253906 58.023438 -56.480469 58.980469 -59.867188 L 59 -59.9375 Z M 67.699219 -57.246094 L 63.363281 -58.628906 L 67.742188 -57.386719 C 66.273438 -52.199219 64.1875 -48.472656 61.488281 -46.214844 C 58.660156 -43.847656 54.996094 -42.664062 50.496094 -42.664062 L 39.132812 -42.664062 L 48.144531 -74.46875 L 57.050781 -74.46875 C 60.582031 -74.46875 63.375 -73.5625 65.429688 -71.753906 C 67.652344 -69.792969 68.761719 -67.078125 68.761719 -63.605469 C 68.761719 -61.59375 68.410156 -59.476562 67.699219 -57.246094 Z M 50.128906 -24.214844 C 50.574219 -25.742188 50.796875 -27.097656 50.796875 -28.28125 C 50.796875 -29.085938 50.691406 -29.582031 50.480469 -29.765625 C 50.082031 -30.113281 49.195312 -30.285156 47.824219 -30.285156 L 41.753906 -30.285156 L 41.753906 -34.835938 L 46.128906 -33.570312 L 39.210938 -9.660156 L 34.835938 -10.925781 L 34.835938 -15.476562 L 41.027344 -15.476562 C 43.414062 -15.476562 45.238281 -16 46.5 -17.042969 C 47.878906 -18.183594 49.085938 -20.566406 50.125 -24.191406 Z M 58.878906 -21.691406 C 57.324219 -16.253906 55.132812 -12.367188 52.304688 -10.027344 C 49.359375 -7.589844 45.597656 -6.371094 41.027344 -6.371094 L 28.78125 -6.371094 L 38.332031 -39.386719 L 47.824219 -39.386719 C 51.46875 -39.386719 54.347656 -38.46875 56.457031 -36.628906 C 58.753906 -34.632812 59.902344 -31.847656 59.902344 -28.28125 C 59.902344 -26.230469 59.558594 -24.023438 58.871094 -21.667969 Z M 58.878906 -21.691406 "/></g></g></g><g fill="#ffde59" fill-opacity="1"><g transform="translate(161.510834, 222.38824)"><g><path d="M 64.332031 -68.761719 C 69.414062 -68.761719 73.484375 -66.71875 76.539062 -62.625 C 79.285156 -58.945312 80.660156 -54.132812 80.660156 -48.1875 C 80.660156 -43.4375 79.820312 -38.375 78.144531 -32.996094 C 75.007812 -22.558594 69.976562 -12.714844 63.0625 -3.464844 C 56.128906 5.808594 48.152344 13.269531 39.132812 18.910156 C 29.855469 24.714844 20.535156 27.613281 11.167969 27.613281 C 6.269531 27.613281 1.992188 26.738281 -1.667969 24.980469 C -5.46875 23.15625 -8.390625 20.671875 -10.433594 17.53125 C -12.5 14.351562 -13.535156 10.933594 -13.535156 7.28125 C -13.535156 5.65625 -13.277344 3.914062 -12.761719 2.058594 L -12.738281 1.972656 L -12.707031 1.882812 C -11.671875 -1.339844 -9.898438 -3.847656 -7.378906 -5.644531 C -4.890625 -7.425781 -1.984375 -8.316406 1.335938 -8.316406 C 6.375 -8.316406 10.535156 -6.558594 13.820312 -3.050781 C 16.859375 0.191406 18.769531 4.511719 19.554688 9.90625 L 15.050781 10.558594 L 14.839844 6.011719 C 18.875 5.824219 22.667969 4.019531 26.21875 0.605469 L 29.375 3.882812 L 28.582031 8.367188 C 23.480469 7.464844 19.597656 5.628906 16.925781 2.851562 C 14.292969 0.109375 12.535156 -3.910156 11.652344 -9.203125 L 6.796875 -38.957031 C 6.707031 -39.511719 6.613281 -39.945312 6.515625 -40.257812 C 6.488281 -40.339844 6.46875 -40.398438 6.453125 -40.429688 C 6.476562 -40.375 6.523438 -40.300781 6.585938 -40.214844 C 6.785156 -39.945312 7.054688 -39.722656 7.390625 -39.546875 C 7.753906 -39.359375 8.121094 -39.265625 8.496094 -39.265625 C 8.832031 -39.265625 9.113281 -39.316406 9.347656 -39.417969 L 9.367188 -39.421875 C 9.320312 -39.394531 9.261719 -39.355469 9.195312 -39.304688 C 7.621094 -38.148438 6.175781 -37.566406 4.855469 -37.566406 C 3.726562 -37.566406 2.707031 -37.890625 1.800781 -38.535156 C 1.027344 -39.082031 0.429688 -39.800781 0.0078125 -40.699219 C -0.441406 -41.65625 -0.667969 -42.816406 -0.667969 -44.183594 C -0.667969 -45.777344 -0.394531 -47.445312 0.144531 -49.183594 C 1.882812 -54.675781 5.089844 -59.308594 9.765625 -63.082031 C 14.566406 -66.949219 20.128906 -68.882812 26.460938 -68.882812 C 33.097656 -68.882812 38.101562 -66.78125 41.480469 -62.570312 C 44.5 -58.808594 46.421875 -53.296875 47.25 -46.035156 L 50.878906 -19.429688 C 50.910156 -19.164062 50.941406 -18.976562 50.976562 -18.875 C 50.953125 -18.953125 50.890625 -19.0625 50.789062 -19.199219 C 50.550781 -19.53125 50.234375 -19.800781 49.835938 -20.007812 C 49.421875 -20.222656 48.992188 -20.332031 48.554688 -20.332031 C 48.308594 -20.332031 48.105469 -20.296875 47.941406 -20.226562 C 47.964844 -20.238281 48.027344 -20.285156 48.132812 -20.367188 C 48.648438 -20.765625 49.269531 -21.453125 49.988281 -22.429688 C 51.6875 -24.726562 53.390625 -28.109375 55.105469 -32.582031 L 59.355469 -30.953125 L 56.3125 -27.570312 C 53.414062 -30.175781 51.1875 -33.179688 49.632812 -36.585938 C 48.0625 -40.019531 47.277344 -43.683594 47.277344 -47.582031 C 47.277344 -50.5625 47.675781 -53.292969 48.464844 -55.765625 C 49.691406 -59.851562 51.703125 -63.019531 54.5 -65.269531 C 57.398438 -67.597656 60.675781 -68.761719 64.332031 -68.761719 Z M 64.332031 -59.660156 C 62.8125 -59.660156 61.4375 -59.164062 60.203125 -58.175781 C 58.875 -57.105469 57.851562 -55.378906 57.136719 -52.992188 C 56.632812 -51.421875 56.382812 -49.617188 56.382812 -47.582031 C 56.382812 -45.003906 56.890625 -42.601562 57.910156 -40.371094 C 58.945312 -38.109375 60.441406 -36.097656 62.402344 -34.335938 L 64.726562 -32.242188 L 63.605469 -29.324219 C 61.597656 -24.082031 59.5 -19.980469 57.3125 -17.019531 C 54.460938 -13.160156 51.539062 -11.226562 48.554688 -11.226562 C 47.507812 -11.226562 46.53125 -11.460938 45.628906 -11.933594 C 44.75 -12.390625 44.003906 -13.039062 43.402344 -13.878906 C 42.582031 -15.019531 42.066406 -16.460938 41.859375 -18.199219 L 38.203125 -45.003906 C 37.574219 -50.523438 36.300781 -54.480469 34.382812 -56.871094 C 32.824219 -58.8125 30.183594 -59.78125 26.460938 -59.78125 C 22.273438 -59.78125 18.613281 -58.519531 15.480469 -55.992188 C 12.230469 -53.371094 10.015625 -50.195312 8.835938 -46.46875 C 8.570312 -45.613281 8.4375 -44.851562 8.4375 -44.183594 C 8.4375 -44.074219 8.4375 -44.011719 8.441406 -43.984375 C 8.414062 -44.15625 8.347656 -44.351562 8.246094 -44.574219 C 7.988281 -45.125 7.59375 -45.585938 7.0625 -45.964844 C 6.394531 -46.433594 5.660156 -46.671875 4.855469 -46.671875 C 4.277344 -46.671875 3.796875 -46.570312 3.414062 -46.371094 C 3.472656 -46.40625 3.601562 -46.492188 3.792969 -46.632812 C 5.367188 -47.792969 6.933594 -48.371094 8.496094 -48.371094 C 10.761719 -48.371094 12.574219 -47.449219 13.925781 -45.601562 C 14.808594 -44.398438 15.425781 -42.675781 15.78125 -40.425781 L 20.632812 -10.703125 C 21.207031 -7.257812 22.160156 -4.84375 23.492188 -3.457031 C 24.789062 -2.109375 27.011719 -1.15625 30.164062 -0.597656 L 38.976562 0.957031 L 32.53125 7.164062 C 27.339844 12.164062 21.582031 14.8125 15.265625 15.105469 L 11.140625 15.300781 L 10.546875 11.214844 C 10.035156 7.707031 8.914062 5.027344 7.175781 3.171875 C 5.6875 1.582031 3.742188 0.789062 1.335938 0.789062 C -0.0390625 0.789062 -1.179688 1.113281 -2.089844 1.761719 C -2.96875 2.390625 -3.621094 3.359375 -4.042969 4.671875 L -8.375 3.277344 L -3.988281 4.496094 C -4.285156 5.554688 -4.429688 6.484375 -4.429688 7.28125 C -4.429688 9.132812 -3.886719 10.898438 -2.796875 12.570312 C -1.683594 14.285156 0.0078125 15.6875 2.273438 16.773438 C 4.683594 17.933594 7.648438 18.511719 11.167969 18.511719 C 18.792969 18.511719 26.503906 16.070312 34.304688 11.191406 C 42.359375 6.152344 49.515625 -0.550781 55.769531 -8.917969 C 62.046875 -17.308594 66.605469 -26.238281 69.453125 -35.703125 C 70.855469 -40.199219 71.554688 -44.363281 71.554688 -48.1875 C 71.554688 -52.117188 70.785156 -55.113281 69.242188 -57.179688 C 68.007812 -58.832031 66.371094 -59.660156 64.332031 -59.660156 Z M 64.332031 -59.660156 "/></g></g></g><g fill="#ffde59" fill-opacity="1"><g transform="translate(69.139006, 337.713324)"><g><path d="M 58.140625 -85.390625 C 71.300781 -85.390625 81.359375 -82.757812 88.320312 -77.492188 C 95.675781 -71.925781 99.351562 -63.898438 99.351562 -53.40625 C 99.351562 -48.542969 98.488281 -43 96.757812 -36.773438 C 93.910156 -26.757812 90.015625 -18.757812 85.082031 -12.765625 C 80 -6.59375 73.347656 -2.117188 65.125 0.667969 C 57.238281 3.34375 47.25 4.636719 35.167969 4.550781 L 2.167969 4.429688 C -0.371094 4.429688 -2.46875 3.925781 -4.125 2.917969 C -5.226562 2.25 -6.085938 1.402344 -6.699219 0.382812 C -7.371094 -0.722656 -7.707031 -1.945312 -7.707031 -3.277344 C -7.707031 -4.386719 -7.464844 -5.507812 -6.976562 -6.648438 L -2.792969 -4.855469 L -7.109375 -6.292969 C -6.558594 -7.945312 -5.667969 -9.21875 -4.4375 -10.113281 C -3.917969 -10.492188 -3.171875 -10.992188 -2.199219 -11.609375 L -2.097656 -11.675781 L -1.988281 -11.734375 C -1.15625 -12.203125 -0.527344 -12.683594 -0.105469 -13.171875 C 0.230469 -13.5625 0.589844 -14.410156 0.972656 -15.71875 L 15.769531 -67.882812 C 15.980469 -68.5625 16.082031 -69.160156 16.082031 -69.671875 C 16.082031 -69.832031 16.074219 -69.960938 16.054688 -70.054688 C 16.054688 -70.070312 16.050781 -70.074219 16.050781 -70.074219 C 16.058594 -70.050781 16.070312 -70.023438 16.085938 -69.992188 C 15.867188 -70.457031 15.558594 -71.027344 15.152344 -71.699219 L 19.058594 -74.042969 L 15.3125 -71.453125 C 14.046875 -73.285156 13.414062 -74.996094 13.414062 -76.59375 C 13.414062 -77.207031 13.539062 -78.023438 13.792969 -79.03125 L 13.820312 -79.148438 L 13.855469 -79.265625 C 14.601562 -81.691406 16.1875 -83.402344 18.613281 -84.386719 C 20.257812 -85.058594 22.507812 -85.390625 25.367188 -85.390625 Z M 58.140625 -76.289062 L 25.367188 -76.289062 C 23.699219 -76.289062 22.589844 -76.179688 22.050781 -75.957031 C 22.109375 -75.984375 22.191406 -76.046875 22.289062 -76.148438 C 22.421875 -76.289062 22.511719 -76.4375 22.558594 -76.589844 L 18.207031 -77.925781 L 22.625 -76.824219 C 22.566406 -76.59375 22.527344 -76.417969 22.503906 -76.292969 L 22.5 -76.28125 C 22.511719 -76.371094 22.515625 -76.476562 22.515625 -76.59375 C 22.515625 -76.890625 22.484375 -77.113281 22.421875 -77.261719 C 22.484375 -77.117188 22.609375 -76.910156 22.800781 -76.632812 L 22.882812 -76.511719 L 22.960938 -76.386719 C 23.527344 -75.441406 23.984375 -74.59375 24.335938 -73.84375 C 24.902344 -72.625 25.1875 -71.238281 25.1875 -69.671875 C 25.1875 -68.246094 24.96875 -66.820312 24.527344 -65.394531 L 9.710938 -13.171875 C 8.960938 -10.59375 7.984375 -8.609375 6.78125 -7.222656 C 5.667969 -5.929688 4.230469 -4.789062 2.472656 -3.800781 L 0.242188 -7.769531 L 2.6875 -3.929688 C 1.875 -3.414062 1.285156 -3.019531 0.917969 -2.753906 C 1.144531 -2.917969 1.324219 -3.101562 1.457031 -3.304688 C 1.488281 -3.355469 1.515625 -3.398438 1.53125 -3.433594 L 1.527344 -3.414062 L 1.464844 -3.234375 L 1.390625 -3.0625 C 1.382812 -3.035156 1.371094 -3.015625 1.367188 -3 C 1.367188 -3 1.367188 -3.003906 1.371094 -3.011719 C 1.386719 -3.085938 1.394531 -3.175781 1.394531 -3.277344 C 1.394531 -3.636719 1.292969 -3.988281 1.085938 -4.328125 C 0.933594 -4.578125 0.773438 -4.757812 0.605469 -4.859375 C 0.632812 -4.84375 0.726562 -4.816406 0.882812 -4.785156 C 1.222656 -4.710938 1.664062 -4.671875 2.203125 -4.671875 L 35.234375 -4.550781 C 46.292969 -4.472656 55.285156 -5.609375 62.203125 -7.953125 C 68.789062 -10.183594 74.074219 -13.71875 78.054688 -18.550781 C 82.183594 -23.566406 85.492188 -30.453125 87.984375 -39.210938 C 89.492188 -44.636719 90.246094 -49.371094 90.246094 -53.40625 C 90.246094 -60.882812 87.773438 -66.488281 82.828125 -70.230469 C 77.492188 -74.269531 69.261719 -76.289062 58.140625 -76.289062 Z M 56.910156 -41.875 C 58.90625 -49.085938 59.902344 -54.667969 59.902344 -58.628906 C 59.902344 -60.324219 59.742188 -61.699219 59.429688 -62.746094 C 59.226562 -63.417969 58.988281 -63.875 58.722656 -64.121094 C 57.808594 -64.949219 56.28125 -65.363281 54.136719 -65.363281 L 51.464844 -65.363281 L 51.464844 -69.917969 L 55.851562 -68.699219 L 39.464844 -9.707031 L 35.078125 -10.925781 L 35.078125 -15.476562 L 37.992188 -15.476562 C 40.851562 -15.476562 43.1875 -16.039062 45.003906 -17.160156 C 46.835938 -18.296875 48.652344 -20.613281 50.453125 -24.113281 C 52.5 -28.097656 54.65625 -34.03125 56.921875 -41.917969 Z M 65.671875 -39.40625 C 63.246094 -30.949219 60.871094 -24.460938 58.546875 -19.949219 C 55.976562 -14.953125 53.0625 -11.441406 49.796875 -9.421875 C 46.511719 -7.386719 42.578125 -6.371094 37.992188 -6.371094 L 29.089844 -6.371094 L 48.007812 -74.46875 L 54.136719 -74.46875 C 58.628906 -74.46875 62.195312 -73.265625 64.84375 -70.855469 C 67.617188 -68.335938 69.003906 -64.257812 69.003906 -58.628906 C 69.003906 -53.847656 67.898438 -47.453125 65.683594 -39.449219 Z M 65.671875 -39.40625 "/></g></g></g><g fill="#ffde59" fill-opacity="1"><g transform="translate(162.846049, 337.713324)"><g><path d="M 43.332031 -68.761719 C 53.5 -68.761719 61.738281 -66.816406 68.054688 -62.929688 C 71.546875 -60.777344 74.183594 -58.027344 75.964844 -54.683594 C 77.71875 -51.394531 78.59375 -47.613281 78.59375 -43.332031 C 78.59375 -40.238281 78.050781 -36.785156 76.964844 -32.980469 L 71.972656 -16.183594 L 67.609375 -17.480469 L 72.027344 -16.375 C 72.039062 -16.425781 72.046875 -16.460938 72.046875 -16.480469 C 72.042969 -16.429688 72.039062 -16.355469 72.039062 -16.265625 C 72.039062 -16.34375 72.019531 -16.457031 71.980469 -16.605469 C 71.878906 -16.984375 71.691406 -17.339844 71.414062 -17.679688 C 71.058594 -18.117188 70.621094 -18.441406 70.105469 -18.65625 C 69.746094 -18.800781 69.402344 -18.875 69.066406 -18.875 C 68.820312 -18.875 68.578125 -18.8125 68.339844 -18.691406 C 68.183594 -18.613281 68.078125 -18.535156 68.015625 -18.460938 C 68.503906 -19.0625 68.949219 -19.546875 69.351562 -19.914062 C 70.453125 -20.921875 71.652344 -21.425781 72.949219 -21.425781 C 74.242188 -21.425781 75.394531 -21.007812 76.40625 -20.171875 C 77.074219 -19.621094 77.625 -18.917969 78.054688 -18.058594 C 78.65625 -16.851562 78.960938 -15.523438 78.960938 -14.082031 L 74.40625 -14.082031 L 78.957031 -14.25 C 79.078125 -10.972656 77.933594 -7.765625 75.527344 -4.632812 C 73.363281 -1.8125 70.511719 0.480469 66.976562 2.25 C 63.421875 4.027344 59.546875 4.917969 55.351562 4.917969 C 50.410156 4.917969 46.113281 3.980469 42.46875 2.105469 C 38.433594 0.0351562 35.644531 -3.042969 34.097656 -7.128906 L 38.355469 -8.738281 L 41.855469 -5.824219 C 39 -2.402344 35.613281 0.242188 31.695312 2.109375 C 27.757812 3.980469 23.546875 4.917969 19.058594 4.917969 C 13.964844 4.917969 9.613281 3.886719 6 1.832031 C 2.332031 -0.257812 -0.417969 -3.003906 -2.246094 -6.398438 C -4.027344 -9.703125 -4.917969 -13.195312 -4.917969 -16.871094 C -4.917969 -18.46875 -4.765625 -20.019531 -4.464844 -21.527344 L -4.449219 -21.59375 L -4.433594 -21.664062 C -2.863281 -28.433594 0.59375 -33.570312 5.945312 -37.066406 C 11.03125 -40.394531 17.019531 -42.058594 23.914062 -42.058594 C 31.109375 -42.058594 38.171875 -40.933594 45.105469 -38.679688 L 43.699219 -34.351562 L 39.441406 -35.964844 L 42.476562 -43.976562 L 46.730469 -42.363281 L 42.382812 -43.707031 C 43.300781 -46.667969 43.757812 -48.851562 43.757812 -50.253906 L 48.308594 -50.253906 L 43.761719 -50.0625 C 43.738281 -50.625 43.660156 -50.960938 43.523438 -51.066406 C 43.421875 -51.148438 43.21875 -51.230469 42.914062 -51.308594 C 42.359375 -51.453125 41.648438 -51.527344 40.785156 -51.527344 L 40.785156 -56.078125 L 45.046875 -57.675781 C 45.726562 -55.867188 46.066406 -54 46.066406 -52.074219 C 46.066406 -47.789062 44.46875 -44.109375 41.273438 -41.027344 C 38.125 -37.992188 33.835938 -36.476562 28.402344 -36.476562 C 23.394531 -36.476562 19.363281 -37.667969 16.3125 -40.050781 C 12.921875 -42.703125 11.226562 -46.0625 11.226562 -50.128906 C 11.226562 -53.082031 12.054688 -55.78125 13.707031 -58.230469 C 15.222656 -60.476562 17.410156 -62.445312 20.265625 -64.128906 C 25.511719 -67.21875 33.199219 -68.761719 43.332031 -68.761719 Z M 43.332031 -59.660156 C 34.855469 -59.660156 28.707031 -58.535156 24.886719 -56.285156 C 21.851562 -54.492188 20.332031 -52.441406 20.332031 -50.128906 C 20.332031 -49.019531 20.863281 -48.050781 21.921875 -47.222656 C 23.324219 -46.128906 25.484375 -45.578125 28.402344 -45.578125 C 31.386719 -45.578125 33.570312 -46.246094 34.953125 -47.582031 C 36.292969 -48.871094 36.960938 -50.367188 36.960938 -52.074219 C 36.960938 -52.898438 36.816406 -53.699219 36.523438 -54.480469 L 34.214844 -60.628906 L 40.785156 -60.628906 C 44.359375 -60.628906 47.167969 -59.8125 49.210938 -58.175781 C 51.503906 -56.34375 52.71875 -53.765625 52.859375 -50.441406 L 52.863281 -50.347656 L 52.863281 -50.253906 C 52.863281 -47.933594 52.269531 -44.851562 51.082031 -41.015625 L 51.039062 -40.882812 L 46.417969 -28.679688 L 42.289062 -30.023438 C 36.273438 -31.976562 30.148438 -32.957031 23.914062 -32.957031 C 18.828125 -32.957031 14.5 -31.785156 10.929688 -29.449219 C 7.617188 -27.285156 5.453125 -24.003906 4.433594 -19.605469 L 0 -20.636719 L 4.464844 -19.742188 C 4.28125 -18.824219 4.1875 -17.867188 4.1875 -16.871094 C 4.1875 -14.722656 4.714844 -12.671875 5.769531 -10.714844 C 6.769531 -8.851562 8.351562 -7.308594 10.507812 -6.078125 C 12.722656 -4.820312 15.570312 -4.1875 19.058594 -4.1875 C 22.175781 -4.1875 25.085938 -4.828125 27.785156 -6.113281 C 30.5 -7.40625 32.859375 -9.253906 34.859375 -11.652344 L 39.855469 -17.644531 L 42.613281 -10.351562 C 43.332031 -8.449219 44.671875 -6.996094 46.625 -5.992188 C 48.96875 -4.789062 51.875 -4.1875 55.351562 -4.1875 C 58.113281 -4.1875 60.632812 -4.757812 62.902344 -5.890625 C 65.191406 -7.035156 66.992188 -8.464844 68.308594 -10.175781 C 69.382812 -11.574219 69.898438 -12.820312 69.859375 -13.910156 L 69.855469 -13.996094 L 69.855469 -14.082031 C 69.855469 -14.117188 69.855469 -14.136719 69.855469 -14.140625 C 69.863281 -14.09375 69.882812 -14.042969 69.910156 -13.988281 C 70.058594 -13.695312 70.292969 -13.414062 70.617188 -13.144531 C 71.285156 -12.59375 72.0625 -12.320312 72.949219 -12.320312 C 73.730469 -12.320312 74.4375 -12.511719 75.070312 -12.890625 C 75.242188 -12.992188 75.378906 -13.09375 75.488281 -13.191406 C 75.425781 -13.132812 75.292969 -12.980469 75.09375 -12.734375 C 73.492188 -10.757812 71.484375 -9.769531 69.066406 -9.769531 C 67.097656 -9.769531 65.523438 -10.492188 64.351562 -11.9375 C 63.40625 -13.097656 62.9375 -14.539062 62.9375 -16.265625 C 62.9375 -17.125 63.023438 -17.898438 63.195312 -18.582031 L 63.21875 -18.679688 L 68.210938 -35.480469 C 69.0625 -38.46875 69.492188 -41.089844 69.492188 -43.332031 C 69.492188 -46.09375 68.972656 -48.453125 67.933594 -50.402344 C 66.921875 -52.296875 65.371094 -53.886719 63.28125 -55.175781 C 58.429688 -58.164062 51.78125 -59.660156 43.332031 -59.660156 Z M 36.535156 -22.878906 C 35.714844 -22.878906 35.046875 -22.570312 34.542969 -21.949219 C 33.808594 -21.046875 33.441406 -20.121094 33.441406 -19.179688 C 33.441406 -18.960938 33.457031 -18.792969 33.488281 -18.679688 L 33.488281 -18.675781 C 33.476562 -18.699219 33.460938 -18.726562 33.441406 -18.753906 C 33.289062 -18.957031 33.082031 -19.121094 32.828125 -19.238281 C 32.652344 -19.320312 32.515625 -19.359375 32.410156 -19.359375 C 32.382812 -19.359375 32.363281 -19.359375 32.355469 -19.359375 C 32.386719 -19.363281 32.433594 -19.378906 32.488281 -19.398438 C 32.71875 -19.484375 32.996094 -19.632812 33.316406 -19.851562 C 33.71875 -20.125 34.039062 -20.621094 34.28125 -21.347656 L 36.859375 -28.59375 L 41.148438 -27.066406 L 40.359375 -22.585938 C 39.242188 -22.78125 37.96875 -22.878906 36.535156 -22.878906 Z M 36.535156 -31.984375 C 38.5 -31.984375 40.300781 -31.839844 41.941406 -31.550781 L 47.242188 -30.613281 L 42.917969 -18.46875 C 42.027344 -15.792969 40.527344 -13.742188 38.421875 -12.316406 C 36.394531 -10.941406 34.390625 -10.257812 32.410156 -10.257812 C 29.757812 -10.257812 27.675781 -11.269531 26.15625 -13.292969 C 24.945312 -14.910156 24.335938 -16.871094 24.335938 -19.179688 C 24.335938 -22.28125 25.386719 -25.121094 27.484375 -27.695312 C 29.808594 -30.554688 32.828125 -31.984375 36.535156 -31.984375 Z M 36.535156 -31.984375 "/></g></g></g><g fill="#ffde59" fill-opacity="1"><g transform="translate(239.802336, 337.713324)"><g><path d="M 64.332031 -68.761719 C 69.414062 -68.761719 73.484375 -66.71875 76.539062 -62.625 C 79.285156 -58.945312 80.660156 -54.132812 80.660156 -48.1875 C 80.660156 -43.4375 79.820312 -38.375 78.144531 -32.996094 C 75.007812 -22.558594 69.976562 -12.714844 63.0625 -3.464844 C 56.128906 5.808594 48.152344 13.269531 39.132812 18.910156 C 29.855469 24.714844 20.535156 27.613281 11.167969 27.613281 C 6.269531 27.613281 1.992188 26.738281 -1.667969 24.980469 C -5.46875 23.15625 -8.390625 20.671875 -10.433594 17.53125 C -12.5 14.351562 -13.535156 10.933594 -13.535156 7.28125 C -13.535156 5.65625 -13.277344 3.914062 -12.761719 2.058594 L -12.738281 1.972656 L -12.707031 1.882812 C -11.671875 -1.339844 -9.898438 -3.847656 -7.378906 -5.644531 C -4.890625 -7.425781 -1.984375 -8.316406 1.335938 -8.316406 C 6.375 -8.316406 10.535156 -6.558594 13.820312 -3.050781 C 16.859375 0.191406 18.769531 4.511719 19.554688 9.90625 L 15.050781 10.558594 L 14.839844 6.011719 C 18.875 5.824219 22.667969 4.019531 26.21875 0.605469 L 29.375 3.882812 L 28.582031 8.367188 C 23.480469 7.464844 19.597656 5.628906 16.925781 2.851562 C 14.292969 0.109375 12.535156 -3.910156 11.652344 -9.203125 L 6.796875 -38.957031 C 6.707031 -39.511719 6.613281 -39.945312 6.515625 -40.257812 C 6.488281 -40.339844 6.46875 -40.398438 6.453125 -40.429688 C 6.476562 -40.375 6.523438 -40.300781 6.585938 -40.214844 C 6.785156 -39.945312 7.054688 -39.722656 7.390625 -39.546875 C 7.753906 -39.359375 8.121094 -39.265625 8.496094 -39.265625 C 8.832031 -39.265625 9.113281 -39.316406 9.347656 -39.417969 L 9.367188 -39.421875 C 9.320312 -39.394531 9.261719 -39.355469 9.195312 -39.304688 C 7.621094 -38.148438 6.175781 -37.566406 4.855469 -37.566406 C 3.726562 -37.566406 2.707031 -37.890625 1.800781 -38.535156 C 1.027344 -39.082031 0.429688 -39.800781 0.0078125 -40.699219 C -0.441406 -41.65625 -0.667969 -42.816406 -0.667969 -44.183594 C -0.667969 -45.777344 -0.394531 -47.445312 0.144531 -49.183594 C 1.882812 -54.675781 5.089844 -59.308594 9.765625 -63.082031 C 14.566406 -66.949219 20.128906 -68.882812 26.460938 -68.882812 C 33.097656 -68.882812 38.101562 -66.78125 41.480469 -62.570312 C 44.5 -58.808594 46.421875 -53.296875 47.25 -46.035156 L 50.878906 -19.429688 C 50.910156 -19.164062 50.941406 -18.976562 50.976562 -18.875 C 50.953125 -18.953125 50.890625 -19.0625 50.789062 -19.199219 C 50.550781 -19.53125 50.234375 -19.800781 49.835938 -20.007812 C 49.421875 -20.222656 48.992188 -20.332031 48.554688 -20.332031 C 48.308594 -20.332031 48.105469 -20.296875 47.941406 -20.226562 C 47.964844 -20.238281 48.027344 -20.285156 48.132812 -20.367188 C 48.648438 -20.765625 49.269531 -21.453125 49.988281 -22.429688 C 51.6875 -24.726562 53.390625 -28.109375 55.105469 -32.582031 L 59.355469 -30.953125 L 56.3125 -27.570312 C 53.414062 -30.175781 51.1875 -33.179688 49.632812 -36.585938 C 48.0625 -40.019531 47.277344 -43.683594 47.277344 -47.582031 C 47.277344 -50.5625 47.675781 -53.292969 48.464844 -55.765625 C 49.691406 -59.851562 51.703125 -63.019531 54.5 -65.269531 C 57.398438 -67.597656 60.675781 -68.761719 64.332031 -68.761719 Z M 64.332031 -59.660156 C 62.8125 -59.660156 61.4375 -59.164062 60.203125 -58.175781 C 58.875 -57.105469 57.851562 -55.378906 57.136719 -52.992188 C 56.632812 -51.421875 56.382812 -49.617188 56.382812 -47.582031 C 56.382812 -45.003906 56.890625 -42.601562 57.910156 -40.371094 C 58.945312 -38.109375 60.441406 -36.097656 62.402344 -34.335938 L 64.726562 -32.242188 L 63.605469 -29.324219 C 61.597656 -24.082031 59.5 -19.980469 57.3125 -17.019531 C 54.460938 -13.160156 51.539062 -11.226562 48.554688 -11.226562 C 47.507812 -11.226562 46.53125 -11.460938 45.628906 -11.933594 C 44.75 -12.390625 44.003906 -13.039062 43.402344 -13.878906 C 42.582031 -15.019531 42.066406 -16.460938 41.859375 -18.199219 L 38.203125 -45.003906 C 37.574219 -50.523438 36.300781 -54.480469 34.382812 -56.871094 C 32.824219 -58.8125 30.183594 -59.78125 26.460938 -59.78125 C 22.273438 -59.78125 18.613281 -58.519531 15.480469 -55.992188 C 12.230469 -53.371094 10.015625 -50.195312 8.835938 -46.46875 C 8.570312 -45.613281 8.4375 -44.851562 8.4375 -44.183594 C 8.4375 -44.074219 8.4375 -44.011719 8.441406 -43.984375 C 8.414062 -44.15625 8.347656 -44.351562 8.246094 -44.574219 C 7.988281 -45.125 7.59375 -45.585938 7.0625 -45.964844 C 6.394531 -46.433594 5.660156 -46.671875 4.855469 -46.671875 C 4.277344 -46.671875 3.796875 -46.570312 3.414062 -46.371094 C 3.472656 -46.40625 3.601562 -46.492188 3.792969 -46.632812 C 5.367188 -47.792969 6.933594 -48.371094 8.496094 -48.371094 C 10.761719 -48.371094 12.574219 -47.449219 13.925781 -45.601562 C 14.808594 -44.398438 15.425781 -42.675781 15.78125 -40.425781 L 20.632812 -10.703125 C 21.207031 -7.257812 22.160156 -4.84375 23.492188 -3.457031 C 24.789062 -2.109375 27.011719 -1.15625 30.164062 -0.597656 L 38.976562 0.957031 L 32.53125 7.164062 C 27.339844 12.164062 21.582031 14.8125 15.265625 15.105469 L 11.140625 15.300781 L 10.546875 11.214844 C 10.035156 7.707031 8.914062 5.027344 7.175781 3.171875 C 5.6875 1.582031 3.742188 0.789062 1.335938 0.789062 C -0.0390625 0.789062 -1.179688 1.113281 -2.089844 1.761719 C -2.96875 2.390625 -3.621094 3.359375 -4.042969 4.671875 L -8.375 3.277344 L -3.988281 4.496094 C -4.285156 5.554688 -4.429688 6.484375 -4.429688 7.28125 C -4.429688 9.132812 -3.886719 10.898438 -2.796875 12.570312 C -1.683594 14.285156 0.0078125 15.6875 2.273438 16.773438 C 4.683594 17.933594 7.648438 18.511719 11.167969 18.511719 C 18.792969 18.511719 26.503906 16.070312 34.304688 11.191406 C 42.359375 6.152344 49.515625 -0.550781 55.769531 -8.917969 C 62.046875 -17.308594 66.605469 -26.238281 69.453125 -35.703125 C 70.855469 -40.199219 71.554688 -44.363281 71.554688 -48.1875 C 71.554688 -52.117188 70.785156 -55.113281 69.242188 -57.179688 C 68.007812 -58.832031 66.371094 -59.660156 64.332031 -59.660156 Z M 64.332031 -59.660156 "/></g></g></g><g transform="matrix(1, 0, 0, 1, 0, 0)"><g clip-path="url(#de9ab12400)"><g mask="url(#5abcb17f9b)"><g transform="matrix(1, 0, 0, 1, 0, 0)"><g clip-path="url(#1810eb3248)"><g clip-path="url(#c4342ddb74)"><rect x="-201.3" fill="url(#67a8573089)" width="777.6" height="777.599981" y="-201.299995"/></g></g></g></g></g></g><g transform="matrix(1, 0, 0, 1, 0, 0)"><g clip-path="url(#93ef0c8799)"><g mask="url(#8d972e737c)"><g transform="matrix(1, 0, 0, 1, 0, 0)"><g clip-path="url(#3db5c5e006)"><g clip-path="url(#c35329613e)"><rect x="-201.3" fill="url(#67a8573089)" width="777.6" height="777.599981" y="-201.299995"/></g></g></g></g></g></g><g transform="matrix(1, 0, 0, 1, 0, 0)"><g clip-path="url(#7bb28a3650)"><g mask="url(#c8d800fac6)"><g transform="matrix(1, 0, 0, 1, 0, 0)"><g clip-path="url(#230acc61c9)"><g clip-path="url(#3e34d13e05)"><rect x="-201.3" fill="url(#67a8573089)" width="777.6" height="777.599981" y="-201.299995"/></g></g></g></g></g></g></g></g></svg>