<svg xmlns="http://www.w3.org/2000/svg" xmlns:xlink="http://www.w3.org/1999/xlink" width="2000" zoomAndPan="magnify" viewBox="0 0 1500 1499.999933" height="2000" preserveAspectRatio="xMidYMid meet" version="1.0"><path stroke-linecap="square" transform="matrix(78.947367, 0, 0, 78.947367, -48011.050231, -54875.527293)" fill-opacity="1" fill="#999999" fill-rule="nonzero" stroke-linejoin="bevel" d="M 617.640032 695.590014 C 617.17379 695.590014 616.706459 695.649537 616.259316 695.717917 C 616.188214 696.8643 616.008159 697.983272 615.057615 698.377027 C 614.104943 698.771623 613.210013 698.091136 612.347394 697.328761 C 611.593183 697.879217 610.904235 698.543772 610.353086 699.297537 C 611.118529 700.162581 611.822865 701.052068 611.426982 702.007759 C 611.031545 702.96241 609.89392 703.138852 608.742292 703.209459 C 608.672279 703.661798 608.640019 704.118243 608.640019 704.590126 C 608.640019 705.068144 608.670597 705.538592 608.742292 705.996324 C 609.89392 706.066832 611.031495 706.192212 611.426982 707.146912 C 611.822865 708.102652 611.118578 709.043201 610.353086 709.908345 C 610.901414 710.65642 611.598576 711.304004 612.347394 711.851491 C 613.207292 711.092431 614.108357 710.435496 615.057615 710.828806 C 616.012266 711.224243 616.188709 712.336287 616.259316 713.487915 C 616.706459 713.556345 617.17379 713.590188 617.640032 713.590188 C 618.106323 713.590188 618.547974 713.556196 618.995118 713.487915 C 619.065626 712.336287 619.242118 711.224243 620.196818 710.828806 C 621.146175 710.435545 622.04724 711.092431 622.90704 711.851491 C 623.655808 711.304004 624.352969 710.656371 624.901347 709.908345 C 624.135954 709.043251 623.431568 708.102701 623.827451 707.146912 C 624.222889 706.192261 625.386045 706.066881 626.537673 705.996324 C 626.609368 705.538493 626.639946 705.068045 626.639946 704.590126 C 626.639946 704.118243 626.607537 703.661798 626.537673 703.209459 C 625.386045 703.139001 624.222839 702.962459 623.827451 702.007759 C 623.431568 701.052019 624.135855 700.162532 624.901347 699.297537 C 624.350298 698.543821 623.661251 697.879266 622.90704 697.328761 C 622.04442 698.091186 621.149391 698.771623 620.196818 698.377027 C 619.246274 697.983272 619.066219 696.8643 618.995118 695.717917 C 618.547974 695.649488 618.106274 695.590014 617.640032 695.590014 Z M 617.640032 701.649727 C 619.266115 701.649727 620.580331 702.963943 620.580331 704.590027 C 620.580331 706.21611 619.266115 707.530326 617.640032 707.530326 C 616.013899 707.530326 614.674151 706.21611 614.674151 704.590027 C 614.674151 702.963943 616.013899 701.649727 617.640032 701.649727 Z M 617.640032 701.649727 " stroke="#333333" stroke-width="1" stroke-opacity="1" stroke-miterlimit="4"/></svg>