<svg xmlns="http://www.w3.org/2000/svg" xmlns:xlink="http://www.w3.org/1999/xlink" width="2000" zoomAndPan="magnify" viewBox="0 0 1500 1499.999933" height="2000" preserveAspectRatio="xMidYMid meet" version="1.0"><defs><clipPath id="5619e0c8ad"><path d="M 236.234375 742.964844 L 1263.296875 742.964844 L 1263.296875 1282.933594 L 236.234375 1282.933594 Z M 236.234375 742.964844 " clip-rule="nonzero"/></clipPath><clipPath id="803744da50"><path d="M 721 742.964844 L 893 742.964844 L 893 827 L 721 827 Z M 721 742.964844 " clip-rule="nonzero"/></clipPath><clipPath id="c30b7cf448"><path d="M 293 742.964844 L 351 742.964844 L 351 798 L 293 798 Z M 293 742.964844 " clip-rule="nonzero"/></clipPath><clipPath id="bbae45f4f8"><path d="M 1092 742.964844 L 1207 742.964844 L 1207 855 L 1092 855 Z M 1092 742.964844 " clip-rule="nonzero"/></clipPath><clipPath id="ed00e2d783"><path d="M 239 239 L 1261 239 L 1261 743.714844 L 239 743.714844 Z M 239 239 " clip-rule="nonzero"/></clipPath><clipPath id="71905f4a16"><path d="M 648 0.597656 L 851 0.597656 L 851 176 L 648 176 Z M 648 0.597656 " clip-rule="nonzero"/></clipPath><clipPath id="97df361089"><path d="M 0 649 L 175 649 L 175 743.714844 L 0 743.714844 Z M 0 649 " clip-rule="nonzero"/></clipPath><clipPath id="3378baab30"><path d="M 1324 649 L 1499.21875 649 L 1499.21875 743.714844 L 1324 743.714844 Z M 1324 649 " clip-rule="nonzero"/></clipPath><clipPath id="3313da2d70"><rect x="0" width="1500" y="0" height="1285"/></clipPath></defs><g transform="matrix(1, 0, 0, 1, 0, 108)"><g clip-path="url(#3313da2d70)"><g clip-path="url(#5619e0c8ad)"><path fill="#ccd6dd" d="M 1263.296875 769.402344 C 1263.296875 777.804688 1263.089844 786.203125 1262.675781 794.597656 C 1262.265625 802.992188 1261.644531 811.371094 1260.820312 819.734375 C 1260 828.097656 1258.96875 836.4375 1257.738281 844.75 C 1256.503906 853.066406 1255.066406 861.34375 1253.425781 869.585938 C 1251.789062 877.828125 1249.945312 886.027344 1247.90625 894.179688 C 1245.863281 902.332031 1243.621094 910.429688 1241.183594 918.472656 C 1238.742188 926.511719 1236.105469 934.492188 1233.277344 942.402344 C 1230.445312 950.316406 1227.421875 958.15625 1224.203125 965.921875 C 1220.988281 973.683594 1217.582031 981.367188 1213.992188 988.964844 C 1210.398438 996.5625 1206.621094 1004.066406 1202.65625 1011.476562 C 1198.695312 1018.890625 1194.554688 1026.199219 1190.234375 1033.410156 C 1185.914062 1040.617188 1181.417969 1047.714844 1176.75 1054.703125 C 1172.082031 1061.691406 1167.242188 1068.558594 1162.234375 1075.3125 C 1157.230469 1082.0625 1152.058594 1088.683594 1146.730469 1095.179688 C 1141.398438 1101.679688 1135.910156 1108.039062 1130.265625 1114.265625 C 1124.621094 1120.496094 1118.828125 1126.578125 1112.886719 1132.523438 C 1106.941406 1138.464844 1100.859375 1144.257812 1094.628906 1149.902344 C 1088.402344 1155.546875 1082.042969 1161.035156 1075.542969 1166.367188 C 1069.046875 1171.695312 1062.425781 1176.867188 1055.675781 1181.871094 C 1048.921875 1186.878906 1042.054688 1191.71875 1035.066406 1196.386719 C 1028.078125 1201.054688 1020.980469 1205.550781 1013.773438 1209.871094 C 1006.5625 1214.191406 999.253906 1218.332031 991.839844 1222.292969 C 984.429688 1226.257812 976.925781 1230.035156 969.328125 1233.628906 C 961.730469 1237.21875 954.046875 1240.625 946.285156 1243.839844 C 938.519531 1247.058594 930.679688 1250.082031 922.765625 1252.914062 C 914.855469 1255.742188 906.875 1258.378906 898.835938 1260.820312 C 890.792969 1263.257812 882.695312 1265.5 874.542969 1267.542969 C 866.390625 1269.582031 858.191406 1271.425781 849.949219 1273.0625 C 841.707031 1274.703125 833.429688 1276.140625 825.113281 1277.375 C 816.800781 1278.605469 808.460938 1279.636719 800.097656 1280.457031 C 791.734375 1281.28125 783.355469 1281.902344 774.960938 1282.3125 C 766.566406 1282.726562 758.167969 1282.933594 749.765625 1282.933594 C 741.359375 1282.933594 732.960938 1282.726562 724.566406 1282.3125 C 716.171875 1281.902344 707.792969 1281.28125 699.429688 1280.457031 C 691.066406 1279.636719 682.726562 1278.605469 674.414062 1277.375 C 666.101562 1276.140625 657.820312 1274.703125 649.578125 1273.0625 C 641.335938 1271.425781 633.136719 1269.582031 624.984375 1267.542969 C 616.832031 1265.5 608.734375 1263.257812 600.695312 1260.820312 C 592.652344 1258.378906 584.671875 1255.742188 576.761719 1252.914062 C 568.847656 1250.082031 561.007812 1247.058594 553.242188 1243.839844 C 545.480469 1240.625 537.796875 1237.21875 530.199219 1233.628906 C 522.605469 1230.035156 515.097656 1226.257812 507.6875 1222.292969 C 500.273438 1218.332031 492.964844 1214.191406 485.757812 1209.871094 C 478.546875 1205.550781 471.449219 1201.054688 464.460938 1196.386719 C 457.472656 1191.71875 450.605469 1186.878906 443.855469 1181.871094 C 437.101562 1176.867188 430.480469 1171.695312 423.984375 1166.367188 C 417.488281 1161.035156 411.125 1155.546875 404.898438 1149.902344 C 398.671875 1144.257812 392.585938 1138.464844 386.644531 1132.523438 C 380.699219 1126.578125 374.90625 1120.496094 369.261719 1114.265625 C 363.617188 1108.039062 358.128906 1101.679688 352.800781 1095.179688 C 347.46875 1088.683594 342.296875 1082.0625 337.292969 1075.3125 C 332.285156 1068.558594 327.449219 1061.691406 322.777344 1054.703125 C 318.109375 1047.714844 313.613281 1040.617188 309.292969 1033.410156 C 304.972656 1026.199219 300.832031 1018.890625 296.871094 1011.476562 C 292.90625 1004.066406 289.128906 996.5625 285.539062 988.964844 C 281.945312 981.367188 278.539062 973.683594 275.324219 965.921875 C 272.105469 958.15625 269.082031 950.316406 266.25 942.402344 C 263.421875 934.492188 260.785156 926.511719 258.34375 918.472656 C 255.90625 910.429688 253.664062 902.332031 251.621094 894.179688 C 249.582031 886.027344 247.738281 877.828125 246.101562 869.585938 C 244.460938 861.34375 243.023438 853.066406 241.792969 844.75 C 240.558594 836.4375 239.53125 828.097656 238.707031 819.734375 C 237.882812 811.371094 237.265625 802.992188 236.851562 794.597656 C 236.4375 786.203125 236.234375 777.804688 236.234375 769.402344 C 236.234375 760.996094 236.4375 752.597656 236.851562 744.203125 C 237.265625 735.808594 237.882812 727.429688 238.707031 719.066406 C 239.53125 710.703125 240.558594 702.363281 241.792969 694.050781 C 243.023438 685.738281 244.460938 677.457031 246.101562 669.214844 C 247.738281 660.972656 249.582031 652.773438 251.621094 644.621094 C 253.664062 636.46875 255.90625 628.371094 258.34375 620.332031 C 260.785156 612.289062 263.421875 604.308594 266.25 596.398438 C 269.082031 588.484375 272.105469 580.644531 275.324219 572.878906 C 278.539062 565.117188 281.945312 557.433594 285.539062 549.835938 C 289.128906 542.242188 292.90625 534.734375 296.871094 527.324219 C 300.832031 519.910156 304.972656 512.601562 309.292969 505.394531 C 313.613281 498.183594 318.109375 491.085938 322.777344 484.097656 C 327.449219 477.109375 332.285156 470.242188 337.292969 463.492188 C 342.296875 456.738281 347.46875 450.117188 352.800781 443.621094 C 358.128906 437.125 363.617188 430.761719 369.261719 424.535156 C 374.90625 418.308594 380.699219 412.222656 386.644531 406.28125 C 392.585938 400.335938 398.671875 394.542969 404.898438 388.898438 C 411.125 383.253906 417.488281 377.765625 423.984375 372.4375 C 430.480469 367.105469 437.101562 361.933594 443.855469 356.929688 C 450.605469 351.921875 457.472656 347.085938 464.460938 342.414062 C 471.449219 337.746094 478.546875 333.25 485.757812 328.929688 C 492.964844 324.609375 500.273438 320.46875 507.6875 316.507812 C 515.097656 312.542969 522.605469 308.765625 530.199219 305.175781 C 537.796875 301.582031 545.480469 298.175781 553.242188 294.960938 C 561.007812 291.742188 568.847656 288.71875 576.761719 285.886719 C 584.671875 283.058594 592.652344 280.421875 600.695312 277.980469 C 608.734375 275.542969 616.832031 273.300781 624.984375 271.257812 C 633.136719 269.21875 641.335938 267.375 649.578125 265.738281 C 657.820312 264.097656 666.101562 262.660156 674.414062 261.429688 C 682.726562 260.195312 691.066406 259.167969 699.429688 258.34375 C 707.792969 257.519531 716.171875 256.902344 724.566406 256.488281 C 732.960938 256.074219 741.359375 255.871094 749.765625 255.871094 C 758.167969 255.871094 766.566406 256.074219 774.960938 256.488281 C 783.355469 256.902344 791.734375 257.519531 800.097656 258.34375 C 808.460938 259.167969 816.800781 260.195312 825.113281 261.429688 C 833.429688 262.660156 841.707031 264.097656 849.949219 265.738281 C 858.191406 267.375 866.390625 269.21875 874.542969 271.257812 C 882.695312 273.300781 890.792969 275.542969 898.835938 277.980469 C 906.875 280.421875 914.855469 283.058594 922.765625 285.886719 C 930.679688 288.71875 938.519531 291.742188 946.285156 294.960938 C 954.046875 298.175781 961.730469 301.582031 969.328125 305.175781 C 976.925781 308.765625 984.429688 312.542969 991.839844 316.507812 C 999.253906 320.46875 1006.5625 324.609375 1013.773438 328.929688 C 1020.980469 333.25 1028.078125 337.746094 1035.066406 342.414062 C 1042.054688 347.085938 1048.921875 351.921875 1055.675781 356.929688 C 1062.425781 361.933594 1069.046875 367.105469 1075.542969 372.4375 C 1082.042969 377.765625 1088.402344 383.253906 1094.628906 388.898438 C 1100.859375 394.542969 1106.941406 400.335938 1112.886719 406.28125 C 1118.828125 412.222656 1124.621094 418.308594 1130.265625 424.535156 C 1135.910156 430.761719 1141.398438 437.125 1146.730469 443.621094 C 1152.058594 450.117188 1157.230469 456.738281 1162.234375 463.492188 C 1167.242188 470.242188 1172.082031 477.109375 1176.75 484.097656 C 1181.417969 491.085938 1185.914062 498.183594 1190.234375 505.394531 C 1194.554688 512.601562 1198.695312 519.910156 1202.65625 527.324219 C 1206.621094 534.734375 1210.398438 542.242188 1213.992188 549.835938 C 1217.582031 557.433594 1220.988281 565.117188 1224.203125 572.878906 C 1227.421875 580.644531 1230.445312 588.484375 1233.277344 596.398438 C 1236.105469 604.308594 1238.742188 612.289062 1241.183594 620.332031 C 1243.621094 628.371094 1245.863281 636.46875 1247.90625 644.621094 C 1249.945312 652.773438 1251.789062 660.972656 1253.425781 669.214844 C 1255.066406 677.457031 1256.503906 685.738281 1257.738281 694.050781 C 1258.96875 702.363281 1260 710.703125 1260.820312 719.066406 C 1261.644531 727.429688 1262.265625 735.808594 1262.675781 744.203125 C 1263.089844 752.597656 1263.296875 760.996094 1263.296875 769.402344 Z M 1263.296875 769.402344 " fill-opacity="1" fill-rule="nonzero"/></g><g clip-path="url(#803744da50)"><path fill="#b8c5cd" d="M 892.410156 740.871094 C 892.410156 742.273438 892.378906 743.671875 892.308594 745.070312 C 892.238281 746.46875 892.136719 747.867188 892 749.261719 C 891.863281 750.65625 891.691406 752.042969 891.484375 753.429688 C 891.28125 754.816406 891.039062 756.195312 890.765625 757.570312 C 890.492188 758.941406 890.1875 760.308594 889.847656 761.667969 C 889.507812 763.027344 889.132812 764.375 888.726562 765.714844 C 888.320312 767.054688 887.878906 768.386719 887.410156 769.707031 C 886.9375 771.023438 886.433594 772.332031 885.894531 773.625 C 885.359375 774.917969 884.792969 776.199219 884.195312 777.464844 C 883.59375 778.730469 882.964844 779.980469 882.304688 781.21875 C 881.644531 782.453125 880.953125 783.671875 880.234375 784.871094 C 879.515625 786.074219 878.765625 787.257812 877.988281 788.421875 C 877.210938 789.585938 876.402344 790.730469 875.566406 791.855469 C 874.734375 792.980469 873.871094 794.085938 872.984375 795.167969 C 872.09375 796.25 871.179688 797.3125 870.238281 798.347656 C 869.300781 799.386719 868.332031 800.402344 867.34375 801.390625 C 866.351562 802.382812 865.339844 803.347656 864.300781 804.289062 C 863.261719 805.230469 862.203125 806.144531 861.121094 807.03125 C 860.035156 807.921875 858.933594 808.78125 857.808594 809.617188 C 856.683594 810.449219 855.539062 811.257812 854.375 812.035156 C 853.207031 812.8125 852.027344 813.5625 850.824219 814.28125 C 849.621094 815.003906 848.40625 815.691406 847.167969 816.351562 C 845.933594 817.015625 844.683594 817.644531 843.417969 818.242188 C 842.152344 818.839844 840.871094 819.410156 839.578125 819.945312 C 838.28125 820.480469 836.976562 820.984375 835.65625 821.457031 C 834.339844 821.929688 833.007812 822.367188 831.667969 822.773438 C 830.328125 823.179688 828.976562 823.554688 827.621094 823.894531 C 826.261719 824.234375 824.894531 824.542969 823.519531 824.816406 C 822.148438 825.089844 820.765625 825.328125 819.382812 825.535156 C 817.996094 825.738281 816.605469 825.910156 815.210938 826.046875 C 813.816406 826.183594 812.421875 826.289062 811.023438 826.355469 C 809.625 826.425781 808.222656 826.460938 806.824219 826.460938 C 805.421875 826.460938 804.023438 826.425781 802.625 826.355469 C 801.222656 826.289062 799.828125 826.183594 798.433594 826.046875 C 797.039062 825.910156 795.648438 825.738281 794.265625 825.535156 C 792.878906 825.328125 791.5 825.089844 790.125 824.816406 C 788.75 824.542969 787.386719 824.234375 786.027344 823.894531 C 784.667969 823.554688 783.316406 823.179688 781.976562 822.773438 C 780.636719 822.367188 779.308594 821.929688 777.988281 821.457031 C 776.671875 820.984375 775.363281 820.480469 774.070312 819.945312 C 772.777344 819.410156 771.496094 818.839844 770.230469 818.242188 C 768.960938 817.644531 767.710938 817.015625 766.476562 816.351562 C 765.242188 815.691406 764.023438 815.003906 762.820312 814.28125 C 761.621094 813.5625 760.4375 812.8125 759.273438 812.035156 C 758.109375 811.257812 756.964844 810.449219 755.839844 809.617188 C 754.710938 808.78125 753.609375 807.921875 752.527344 807.03125 C 751.445312 806.144531 750.382812 805.230469 749.34375 804.289062 C 748.308594 803.347656 747.292969 802.382812 746.304688 801.390625 C 745.3125 800.402344 744.347656 799.386719 743.40625 798.347656 C 742.464844 797.3125 741.550781 796.25 740.664062 795.167969 C 739.773438 794.085938 738.910156 792.980469 738.078125 791.855469 C 737.242188 790.730469 736.4375 789.585938 735.660156 788.421875 C 734.878906 787.257812 734.132812 786.074219 733.410156 784.871094 C 732.691406 783.671875 732 782.453125 731.339844 781.21875 C 730.679688 779.980469 730.050781 778.730469 729.453125 777.464844 C 728.851562 776.199219 728.285156 774.917969 727.75 773.625 C 727.214844 772.332031 726.710938 771.023438 726.238281 769.707031 C 725.765625 768.386719 725.328125 767.054688 724.917969 765.714844 C 724.511719 764.375 724.140625 763.027344 723.800781 761.667969 C 723.460938 760.308594 723.152344 758.941406 722.878906 757.570312 C 722.605469 756.195312 722.367188 754.816406 722.160156 753.429688 C 721.957031 752.042969 721.785156 750.65625 721.648438 749.261719 C 721.507812 747.867188 721.40625 746.46875 721.335938 745.070312 C 721.269531 743.671875 721.234375 742.273438 721.234375 740.871094 C 721.234375 739.46875 721.269531 738.070312 721.335938 736.671875 C 721.40625 735.273438 721.507812 733.875 721.648438 732.480469 C 721.785156 731.089844 721.957031 729.699219 722.160156 728.3125 C 722.367188 726.925781 722.605469 725.546875 722.878906 724.171875 C 723.152344 722.800781 723.460938 721.433594 723.800781 720.074219 C 724.140625 718.714844 724.511719 717.367188 724.917969 716.027344 C 725.328125 714.6875 725.765625 713.355469 726.238281 712.039062 C 726.710938 710.71875 727.214844 709.410156 727.75 708.117188 C 728.285156 706.824219 728.851562 705.542969 729.453125 704.277344 C 730.050781 703.011719 730.679688 701.761719 731.339844 700.523438 C 732 699.289062 732.691406 698.070312 733.410156 696.871094 C 734.132812 695.667969 734.878906 694.484375 735.660156 693.320312 C 736.4375 692.15625 737.242188 691.011719 738.078125 689.886719 C 738.910156 688.761719 739.773438 687.65625 740.664062 686.574219 C 741.550781 685.492188 742.464844 684.429688 743.40625 683.394531 C 744.347656 682.355469 745.3125 681.339844 746.304688 680.351562 C 747.292969 679.359375 748.308594 678.394531 749.34375 677.453125 C 750.382812 676.511719 751.445312 675.597656 752.527344 674.710938 C 753.609375 673.820312 754.710938 672.960938 755.839844 672.125 C 756.964844 671.292969 758.109375 670.484375 759.273438 669.707031 C 760.4375 668.929688 761.621094 668.179688 762.820312 667.460938 C 764.023438 666.738281 765.242188 666.050781 766.476562 665.390625 C 767.710938 664.730469 768.960938 664.097656 770.230469 663.5 C 771.496094 662.902344 772.777344 662.332031 774.070312 661.796875 C 775.363281 661.261719 776.671875 660.757812 777.988281 660.285156 C 779.308594 659.8125 780.636719 659.375 781.976562 658.96875 C 783.316406 658.5625 784.667969 658.1875 786.027344 657.847656 C 787.386719 657.507812 788.75 657.199219 790.125 656.925781 C 791.5 656.652344 792.878906 656.414062 794.265625 656.210938 C 795.648438 656.003906 797.039062 655.832031 798.433594 655.695312 C 799.828125 655.558594 801.222656 655.453125 802.625 655.386719 C 804.023438 655.316406 805.421875 655.28125 806.824219 655.28125 C 808.222656 655.28125 809.625 655.316406 811.023438 655.386719 C 812.421875 655.453125 813.816406 655.558594 815.210938 655.695312 C 816.605469 655.832031 817.996094 656.003906 819.382812 656.210938 C 820.765625 656.414062 822.148438 656.652344 823.519531 656.925781 C 824.894531 657.199219 826.261719 657.507812 827.621094 657.847656 C 828.976562 658.1875 830.328125 658.5625 831.667969 658.96875 C 833.007812 659.375 834.339844 659.8125 835.65625 660.285156 C 836.976562 660.757812 838.28125 661.261719 839.578125 661.796875 C 840.871094 662.332031 842.152344 662.902344 843.417969 663.5 C 844.683594 664.097656 845.933594 664.730469 847.167969 665.390625 C 848.40625 666.050781 849.621094 666.738281 850.824219 667.460938 C 852.027344 668.179688 853.207031 668.929688 854.375 669.707031 C 855.539062 670.484375 856.683594 671.292969 857.808594 672.125 C 858.933594 672.960938 860.035156 673.820312 861.121094 674.710938 C 862.203125 675.597656 863.261719 676.511719 864.300781 677.453125 C 865.339844 678.394531 866.351562 679.359375 867.34375 680.351562 C 868.332031 681.339844 869.300781 682.355469 870.238281 683.394531 C 871.179688 684.429688 872.09375 685.492188 872.984375 686.574219 C 873.871094 687.65625 874.734375 688.761719 875.566406 689.886719 C 876.402344 691.011719 877.210938 692.15625 877.988281 693.320312 C 878.765625 694.484375 879.515625 695.667969 880.234375 696.871094 C 880.953125 698.070312 881.644531 699.289062 882.304688 700.523438 C 882.964844 701.761719 883.59375 703.011719 884.195312 704.277344 C 884.792969 705.542969 885.359375 706.824219 885.894531 708.117188 C 886.433594 709.410156 886.9375 710.71875 887.410156 712.039062 C 887.878906 713.355469 888.320312 714.6875 888.726562 716.027344 C 889.132812 717.367188 889.507812 718.714844 889.847656 720.074219 C 890.1875 721.433594 890.492188 722.800781 890.765625 724.171875 C 891.039062 725.546875 891.28125 726.925781 891.484375 728.3125 C 891.691406 729.699219 891.863281 731.089844 892 732.480469 C 892.136719 733.875 892.238281 735.273438 892.308594 736.671875 C 892.378906 738.070312 892.410156 739.46875 892.410156 740.871094 Z M 892.410156 740.871094 " fill-opacity="1" fill-rule="nonzero"/></g><path fill="#b8c5cd" d="M 1035.058594 1068.960938 C 1035.058594 1070.59375 1035.019531 1072.226562 1034.9375 1073.859375 C 1034.859375 1075.492188 1034.738281 1077.121094 1034.578125 1078.746094 C 1034.417969 1080.375 1034.21875 1081.996094 1033.976562 1083.613281 C 1033.738281 1085.226562 1033.460938 1086.839844 1033.140625 1088.441406 C 1032.820312 1090.042969 1032.464844 1091.636719 1032.066406 1093.222656 C 1031.667969 1094.808594 1031.234375 1096.382812 1030.757812 1097.945312 C 1030.285156 1099.511719 1029.773438 1101.0625 1029.222656 1102.601562 C 1028.671875 1104.136719 1028.082031 1105.664062 1027.457031 1107.171875 C 1026.832031 1108.683594 1026.171875 1110.175781 1025.472656 1111.652344 C 1024.773438 1113.128906 1024.039062 1114.589844 1023.269531 1116.03125 C 1022.5 1117.472656 1021.691406 1118.894531 1020.851562 1120.296875 C 1020.011719 1121.695312 1019.136719 1123.078125 1018.230469 1124.4375 C 1017.324219 1125.792969 1016.382812 1127.128906 1015.410156 1128.441406 C 1014.433594 1129.753906 1013.429688 1131.042969 1012.394531 1132.308594 C 1011.355469 1133.570312 1010.289062 1134.808594 1009.191406 1136.019531 C 1008.09375 1137.230469 1006.96875 1138.410156 1005.8125 1139.566406 C 1004.65625 1140.722656 1003.472656 1141.847656 1002.261719 1142.945312 C 1001.050781 1144.042969 999.816406 1145.113281 998.550781 1146.148438 C 997.289062 1147.183594 996 1148.191406 994.6875 1149.164062 C 993.375 1150.136719 992.039062 1151.078125 990.679688 1151.984375 C 989.324219 1152.894531 987.941406 1153.765625 986.539062 1154.609375 C 985.140625 1155.449219 983.71875 1156.253906 982.277344 1157.023438 C 980.835938 1157.792969 979.375 1158.527344 977.898438 1159.226562 C 976.421875 1159.925781 974.925781 1160.585938 973.417969 1161.210938 C 971.90625 1161.839844 970.382812 1162.425781 968.84375 1162.976562 C 967.308594 1163.527344 965.753906 1164.039062 964.191406 1164.515625 C 962.628906 1164.988281 961.054688 1165.425781 959.46875 1165.820312 C 957.882812 1166.21875 956.289062 1166.578125 954.6875 1166.894531 C 953.082031 1167.214844 951.472656 1167.492188 949.855469 1167.734375 C 948.242188 1167.972656 946.621094 1168.171875 944.992188 1168.332031 C 943.367188 1168.492188 941.738281 1168.613281 940.105469 1168.695312 C 938.472656 1168.773438 936.839844 1168.8125 935.207031 1168.8125 C 933.570312 1168.8125 931.9375 1168.773438 930.304688 1168.695312 C 928.675781 1168.613281 927.042969 1168.492188 925.417969 1168.332031 C 923.792969 1168.171875 922.171875 1167.972656 920.554688 1167.734375 C 918.9375 1167.492188 917.328125 1167.214844 915.726562 1166.894531 C 914.121094 1166.578125 912.527344 1166.21875 910.941406 1165.820312 C 909.359375 1165.425781 907.785156 1164.988281 906.21875 1164.515625 C 904.65625 1164.039062 903.105469 1163.527344 901.566406 1162.976562 C 900.027344 1162.425781 898.503906 1161.839844 896.992188 1161.210938 C 895.484375 1160.585938 893.988281 1159.925781 892.511719 1159.226562 C 891.035156 1158.527344 889.578125 1157.792969 888.136719 1157.023438 C 886.695312 1156.253906 885.273438 1155.449219 883.871094 1154.609375 C 882.46875 1153.765625 881.089844 1152.894531 879.730469 1151.984375 C 878.371094 1151.078125 877.035156 1150.136719 875.722656 1149.164062 C 874.410156 1148.191406 873.121094 1147.183594 871.859375 1146.148438 C 870.597656 1145.113281 869.359375 1144.042969 868.148438 1142.945312 C 866.9375 1141.847656 865.753906 1140.722656 864.597656 1139.566406 C 863.441406 1138.410156 862.316406 1137.230469 861.21875 1136.019531 C 860.121094 1134.808594 859.054688 1133.570312 858.019531 1132.308594 C 856.980469 1131.042969 855.976562 1129.753906 855.003906 1128.441406 C 854.03125 1127.128906 853.089844 1125.792969 852.179688 1124.4375 C 851.273438 1123.078125 850.398438 1121.695312 849.558594 1120.296875 C 848.71875 1118.894531 847.914062 1117.472656 847.144531 1116.03125 C 846.371094 1114.589844 845.636719 1113.128906 844.9375 1111.652344 C 844.242188 1110.175781 843.578125 1108.683594 842.953125 1107.171875 C 842.328125 1105.664062 841.738281 1104.136719 841.1875 1102.601562 C 840.640625 1101.0625 840.125 1099.511719 839.652344 1097.945312 C 839.175781 1096.382812 838.742188 1094.808594 838.34375 1093.222656 C 837.949219 1091.636719 837.589844 1090.042969 837.269531 1088.441406 C 836.953125 1086.839844 836.671875 1085.226562 836.433594 1083.613281 C 836.195312 1081.996094 835.992188 1080.375 835.832031 1078.746094 C 835.671875 1077.121094 835.554688 1075.492188 835.472656 1073.859375 C 835.394531 1072.226562 835.351562 1070.59375 835.351562 1068.960938 C 835.351562 1067.328125 835.394531 1065.691406 835.472656 1064.0625 C 835.554688 1062.429688 835.671875 1060.800781 835.832031 1059.171875 C 835.992188 1057.546875 836.195312 1055.925781 836.433594 1054.308594 C 836.671875 1052.691406 836.953125 1051.082031 837.269531 1049.480469 C 837.589844 1047.878906 837.949219 1046.285156 838.34375 1044.699219 C 838.742188 1043.113281 839.175781 1041.539062 839.652344 1039.976562 C 840.125 1038.410156 840.640625 1036.859375 841.1875 1035.320312 C 841.738281 1033.78125 842.328125 1032.257812 842.953125 1030.75 C 843.578125 1029.238281 844.242188 1027.746094 844.9375 1026.269531 C 845.636719 1024.789062 846.371094 1023.332031 847.144531 1021.890625 C 847.914062 1020.449219 848.71875 1019.027344 849.558594 1017.625 C 850.398438 1016.222656 851.273438 1014.84375 852.179688 1013.484375 C 853.089844 1012.125 854.03125 1010.789062 855.003906 1009.476562 C 855.976562 1008.164062 856.980469 1006.878906 858.019531 1005.613281 C 859.054688 1004.351562 860.121094 1003.113281 861.21875 1001.902344 C 862.316406 1000.691406 863.441406 999.507812 864.597656 998.355469 C 865.753906 997.199219 866.9375 996.070312 868.148438 994.972656 C 869.359375 993.875 870.597656 992.808594 871.859375 991.773438 C 873.121094 990.734375 874.410156 989.730469 875.722656 988.757812 C 877.035156 987.785156 878.371094 986.84375 879.730469 985.933594 C 881.089844 985.027344 882.46875 984.152344 883.871094 983.3125 C 885.273438 982.472656 886.695312 981.667969 888.136719 980.898438 C 889.578125 980.128906 891.035156 979.394531 892.511719 978.695312 C 893.988281 977.996094 895.484375 977.332031 896.992188 976.707031 C 898.503906 976.082031 900.027344 975.496094 901.566406 974.945312 C 903.105469 974.394531 904.65625 973.882812 906.21875 973.40625 C 907.785156 972.933594 909.359375 972.496094 910.941406 972.101562 C 912.527344 971.703125 914.121094 971.34375 915.726562 971.027344 C 917.328125 970.707031 918.9375 970.429688 920.554688 970.1875 C 922.171875 969.949219 923.792969 969.75 925.417969 969.589844 C 927.042969 969.429688 928.675781 969.308594 930.304688 969.226562 C 931.9375 969.148438 933.570312 969.105469 935.207031 969.105469 C 936.839844 969.105469 938.472656 969.148438 940.105469 969.226562 C 941.738281 969.308594 943.367188 969.429688 944.992188 969.589844 C 946.621094 969.75 948.242188 969.949219 949.855469 970.1875 C 951.472656 970.429688 953.082031 970.707031 954.6875 971.027344 C 956.289062 971.34375 957.882812 971.703125 959.46875 972.101562 C 961.054688 972.496094 962.628906 972.933594 964.191406 973.40625 C 965.753906 973.882812 967.304688 974.394531 968.84375 974.945312 C 970.382812 975.496094 971.90625 976.082031 973.417969 976.707031 C 974.925781 977.332031 976.421875 977.996094 977.898438 978.695312 C 979.375 979.394531 980.835938 980.128906 982.277344 980.898438 C 983.71875 981.667969 985.140625 982.472656 986.539062 983.3125 C 987.941406 984.152344 989.324219 985.027344 990.679688 985.933594 C 992.039062 986.84375 993.375 987.785156 994.6875 988.757812 C 996 989.730469 997.289062 990.734375 998.550781 991.773438 C 999.816406 992.808594 1001.050781 993.875 1002.261719 994.972656 C 1003.472656 996.070312 1004.65625 997.199219 1005.8125 998.355469 C 1006.96875 999.507812 1008.09375 1000.691406 1009.191406 1001.902344 C 1010.289062 1003.113281 1011.355469 1004.351562 1012.394531 1005.613281 C 1013.429688 1006.878906 1014.433594 1008.164062 1015.410156 1009.476562 C 1016.382812 1010.789062 1017.324219 1012.125 1018.230469 1013.484375 C 1019.136719 1014.84375 1020.011719 1016.222656 1020.851562 1017.625 C 1021.691406 1019.027344 1022.5 1020.449219 1023.269531 1021.890625 C 1024.039062 1023.332031 1024.773438 1024.789062 1025.472656 1026.269531 C 1026.171875 1027.746094 1026.832031 1029.238281 1027.457031 1030.75 C 1028.082031 1032.257812 1028.671875 1033.78125 1029.222656 1035.320312 C 1029.773438 1036.859375 1030.285156 1038.410156 1030.757812 1039.976562 C 1031.234375 1041.539062 1031.667969 1043.113281 1032.066406 1044.699219 C 1032.464844 1046.285156 1032.820312 1047.878906 1033.140625 1049.480469 C 1033.460938 1051.082031 1033.738281 1052.691406 1033.976562 1054.308594 C 1034.21875 1055.925781 1034.417969 1057.546875 1034.578125 1059.171875 C 1034.738281 1060.800781 1034.859375 1062.429688 1034.9375 1064.0625 C 1035.019531 1065.691406 1035.058594 1067.328125 1035.058594 1068.960938 Z M 1035.058594 1068.960938 " fill-opacity="1" fill-rule="nonzero"/><g clip-path="url(#c30b7cf448)"><path fill="#b8c5cd" d="M 350.351562 769.402344 C 350.351562 770.335938 350.304688 771.265625 350.214844 772.195312 C 350.121094 773.125 349.984375 774.050781 349.800781 774.964844 C 349.621094 775.882812 349.394531 776.789062 349.121094 777.683594 C 348.851562 778.578125 348.535156 779.457031 348.179688 780.320312 C 347.820312 781.179688 347.421875 782.023438 346.980469 782.847656 C 346.542969 783.671875 346.0625 784.472656 345.542969 785.25 C 345.023438 786.027344 344.46875 786.777344 343.875 787.5 C 343.28125 788.222656 342.65625 788.914062 341.996094 789.574219 C 341.335938 790.234375 340.644531 790.863281 339.921875 791.453125 C 339.199219 792.046875 338.449219 792.601562 337.671875 793.121094 C 336.894531 793.640625 336.09375 794.121094 335.269531 794.5625 C 334.445312 795 333.601562 795.402344 332.738281 795.757812 C 331.875 796.117188 330.996094 796.429688 330.101562 796.703125 C 329.207031 796.972656 328.304688 797.199219 327.386719 797.382812 C 326.472656 797.5625 325.546875 797.703125 324.617188 797.792969 C 323.6875 797.882812 322.753906 797.929688 321.820312 797.929688 C 320.886719 797.929688 319.953125 797.882812 319.023438 797.792969 C 318.09375 797.703125 317.171875 797.5625 316.253906 797.382812 C 315.339844 797.199219 314.433594 796.972656 313.539062 796.703125 C 312.644531 796.429688 311.765625 796.117188 310.902344 795.757812 C 310.039062 795.402344 309.195312 795 308.371094 794.5625 C 307.546875 794.121094 306.75 793.640625 305.972656 793.121094 C 305.195312 792.601562 304.445312 792.046875 303.722656 791.453125 C 303 790.863281 302.308594 790.234375 301.648438 789.574219 C 300.988281 788.914062 300.359375 788.222656 299.769531 787.5 C 299.175781 786.777344 298.617188 786.027344 298.101562 785.25 C 297.582031 784.472656 297.101562 783.671875 296.660156 782.847656 C 296.21875 782.023438 295.820312 781.179688 295.464844 780.320312 C 295.105469 779.457031 294.792969 778.578125 294.519531 777.683594 C 294.25 776.789062 294.023438 775.882812 293.839844 774.964844 C 293.65625 774.050781 293.519531 773.125 293.429688 772.195312 C 293.335938 771.265625 293.292969 770.335938 293.292969 769.402344 C 293.292969 768.464844 293.335938 767.535156 293.429688 766.605469 C 293.519531 765.675781 293.65625 764.75 293.839844 763.835938 C 294.023438 762.917969 294.25 762.011719 294.519531 761.117188 C 294.792969 760.226562 295.105469 759.347656 295.464844 758.484375 C 295.820312 757.621094 296.21875 756.777344 296.660156 755.953125 C 297.101562 755.128906 297.582031 754.328125 298.101562 753.550781 C 298.617188 752.773438 299.175781 752.023438 299.769531 751.300781 C 300.359375 750.578125 300.988281 749.886719 301.648438 749.226562 C 302.308594 748.566406 303 747.941406 303.722656 747.347656 C 304.445312 746.753906 305.195312 746.199219 305.972656 745.679688 C 306.75 745.160156 307.546875 744.679688 308.371094 744.238281 C 309.195312 743.800781 310.039062 743.398438 310.902344 743.042969 C 311.765625 742.683594 312.644531 742.371094 313.539062 742.101562 C 314.433594 741.828125 315.339844 741.601562 316.253906 741.417969 C 317.171875 741.238281 318.09375 741.101562 319.023438 741.007812 C 319.953125 740.917969 320.886719 740.871094 321.820312 740.871094 C 322.753906 740.871094 323.6875 740.917969 324.617188 741.007812 C 325.546875 741.101562 326.472656 741.238281 327.386719 741.417969 C 328.304688 741.601562 329.207031 741.828125 330.101562 742.101562 C 330.996094 742.371094 331.875 742.683594 332.738281 743.042969 C 333.601562 743.398438 334.445312 743.800781 335.269531 744.238281 C 336.09375 744.679688 336.894531 745.160156 337.671875 745.679688 C 338.449219 746.199219 339.199219 746.753906 339.921875 747.347656 C 340.644531 747.941406 341.335938 748.566406 341.996094 749.226562 C 342.65625 749.886719 343.28125 750.578125 343.875 751.300781 C 344.46875 752.023438 345.023438 752.773438 345.542969 753.550781 C 346.0625 754.328125 346.542969 755.128906 346.980469 755.953125 C 347.421875 756.777344 347.820312 757.621094 348.179688 758.484375 C 348.535156 759.347656 348.851562 760.226562 349.121094 761.117188 C 349.394531 762.011719 349.621094 762.917969 349.800781 763.835938 C 349.984375 764.75 350.121094 765.675781 350.214844 766.605469 C 350.304688 767.535156 350.351562 768.464844 350.351562 769.402344 Z M 350.351562 769.402344 " fill-opacity="1" fill-rule="nonzero"/></g><path fill="#b8c5cd" d="M 692.703125 1140.285156 C 692.703125 1141.21875 692.660156 1142.152344 692.566406 1143.082031 C 692.476562 1144.011719 692.339844 1144.933594 692.15625 1145.851562 C 691.972656 1146.765625 691.746094 1147.671875 691.476562 1148.566406 C 691.207031 1149.460938 690.890625 1150.339844 690.535156 1151.203125 C 690.175781 1152.066406 689.777344 1152.910156 689.335938 1153.734375 C 688.894531 1154.558594 688.414062 1155.359375 687.898438 1156.132812 C 687.378906 1156.910156 686.820312 1157.660156 686.230469 1158.382812 C 685.636719 1159.105469 685.007812 1159.796875 684.347656 1160.457031 C 683.6875 1161.117188 682.996094 1161.746094 682.273438 1162.335938 C 681.550781 1162.929688 680.800781 1163.488281 680.027344 1164.003906 C 679.25 1164.523438 678.449219 1165.003906 677.625 1165.445312 C 676.800781 1165.886719 675.957031 1166.285156 675.09375 1166.640625 C 674.230469 1167 673.351562 1167.3125 672.457031 1167.585938 C 671.5625 1167.855469 670.65625 1168.082031 669.742188 1168.265625 C 668.824219 1168.449219 667.902344 1168.585938 666.972656 1168.675781 C 666.042969 1168.769531 665.109375 1168.8125 664.175781 1168.8125 C 663.242188 1168.8125 662.308594 1168.769531 661.378906 1168.675781 C 660.449219 1168.585938 659.527344 1168.449219 658.609375 1168.265625 C 657.691406 1168.082031 656.789062 1167.855469 655.894531 1167.585938 C 655 1167.3125 654.121094 1167 653.257812 1166.640625 C 652.394531 1166.285156 651.550781 1165.886719 650.726562 1165.445312 C 649.902344 1165.003906 649.101562 1164.523438 648.324219 1164.003906 C 647.546875 1163.488281 646.796875 1162.929688 646.078125 1162.335938 C 645.355469 1161.746094 644.664062 1161.117188 644.003906 1160.457031 C 643.339844 1159.796875 642.714844 1159.105469 642.121094 1158.382812 C 641.527344 1157.660156 640.972656 1156.910156 640.453125 1156.132812 C 639.933594 1155.359375 639.457031 1154.558594 639.015625 1153.734375 C 638.574219 1152.910156 638.175781 1152.066406 637.816406 1151.203125 C 637.460938 1150.339844 637.144531 1149.460938 636.875 1148.566406 C 636.601562 1147.671875 636.375 1146.765625 636.195312 1145.851562 C 636.011719 1144.933594 635.875 1144.011719 635.785156 1143.082031 C 635.691406 1142.152344 635.644531 1141.21875 635.644531 1140.285156 C 635.644531 1139.351562 635.691406 1138.417969 635.785156 1137.488281 C 635.875 1136.558594 636.011719 1135.636719 636.195312 1134.71875 C 636.375 1133.800781 636.601562 1132.898438 636.875 1132.003906 C 637.144531 1131.109375 637.460938 1130.230469 637.816406 1129.367188 C 638.175781 1128.503906 638.574219 1127.660156 639.015625 1126.835938 C 639.457031 1126.011719 639.933594 1125.210938 640.453125 1124.433594 C 640.972656 1123.65625 641.527344 1122.90625 642.121094 1122.183594 C 642.714844 1121.464844 643.339844 1120.773438 644.003906 1120.109375 C 644.664062 1119.449219 645.355469 1118.824219 646.078125 1118.230469 C 646.796875 1117.636719 647.546875 1117.082031 648.324219 1116.5625 C 649.101562 1116.042969 649.902344 1115.5625 650.726562 1115.125 C 651.550781 1114.683594 652.394531 1114.285156 653.257812 1113.925781 C 654.121094 1113.570312 655 1113.253906 655.894531 1112.984375 C 656.789062 1112.710938 657.691406 1112.484375 658.609375 1112.304688 C 659.527344 1112.121094 660.449219 1111.984375 661.378906 1111.890625 C 662.308594 1111.800781 663.242188 1111.753906 664.175781 1111.753906 C 665.109375 1111.753906 666.042969 1111.800781 666.972656 1111.890625 C 667.902344 1111.984375 668.824219 1112.121094 669.742188 1112.304688 C 670.65625 1112.484375 671.5625 1112.710938 672.457031 1112.984375 C 673.351562 1113.253906 674.230469 1113.570312 675.09375 1113.925781 C 675.957031 1114.285156 676.800781 1114.683594 677.625 1115.125 C 678.449219 1115.5625 679.25 1116.042969 680.027344 1116.5625 C 680.800781 1117.082031 681.550781 1117.636719 682.273438 1118.230469 C 682.996094 1118.824219 683.6875 1119.449219 684.347656 1120.109375 C 685.007812 1120.773438 685.636719 1121.464844 686.230469 1122.183594 C 686.820312 1122.90625 687.378906 1123.65625 687.898438 1124.433594 C 688.414062 1125.210938 688.894531 1126.011719 689.335938 1126.835938 C 689.777344 1127.660156 690.175781 1128.503906 690.535156 1129.367188 C 690.890625 1130.230469 691.207031 1131.109375 691.476562 1132.003906 C 691.746094 1132.898438 691.972656 1133.800781 692.15625 1134.71875 C 692.339844 1135.636719 692.476562 1136.558594 692.566406 1137.488281 C 692.660156 1138.417969 692.703125 1139.351562 692.703125 1140.285156 Z M 692.703125 1140.285156 " fill-opacity="1" fill-rule="nonzero"/><g clip-path="url(#bbae45f4f8)"><path fill="#b8c5cd" d="M 1206.234375 797.929688 C 1206.234375 799.800781 1206.144531 801.664062 1205.960938 803.523438 C 1205.777344 805.382812 1205.503906 807.230469 1205.140625 809.0625 C 1204.773438 810.894531 1204.320312 812.707031 1203.777344 814.492188 C 1203.238281 816.28125 1202.609375 818.039062 1201.894531 819.765625 C 1201.175781 821.492188 1200.378906 823.179688 1199.5 824.828125 C 1198.617188 826.476562 1197.65625 828.078125 1196.621094 829.628906 C 1195.582031 831.183594 1194.46875 832.683594 1193.285156 834.128906 C 1192.097656 835.574219 1190.84375 836.957031 1189.523438 838.277344 C 1188.203125 839.597656 1186.820312 840.851562 1185.375 842.039062 C 1183.929688 843.222656 1182.429688 844.335938 1180.878906 845.371094 C 1179.324219 846.410156 1177.722656 847.371094 1176.074219 848.25 C 1174.425781 849.132812 1172.738281 849.929688 1171.011719 850.644531 C 1169.285156 851.359375 1167.527344 851.988281 1165.742188 852.53125 C 1163.953125 853.074219 1162.140625 853.527344 1160.308594 853.894531 C 1158.476562 854.257812 1156.628906 854.53125 1154.769531 854.714844 C 1152.910156 854.898438 1151.046875 854.988281 1149.175781 854.988281 C 1147.308594 854.988281 1145.445312 854.898438 1143.585938 854.714844 C 1141.726562 854.53125 1139.878906 854.257812 1138.046875 853.894531 C 1136.210938 853.527344 1134.402344 853.074219 1132.613281 852.53125 C 1130.824219 851.988281 1129.066406 851.359375 1127.339844 850.644531 C 1125.613281 849.929688 1123.929688 849.132812 1122.28125 848.25 C 1120.632812 847.371094 1119.03125 846.410156 1117.476562 845.371094 C 1115.921875 844.335938 1114.425781 843.222656 1112.980469 842.039062 C 1111.535156 840.851562 1110.152344 839.597656 1108.832031 838.277344 C 1107.507812 836.957031 1106.253906 835.574219 1105.070312 834.128906 C 1103.882812 832.683594 1102.773438 831.183594 1101.734375 829.628906 C 1100.695312 828.078125 1099.738281 826.476562 1098.855469 824.828125 C 1097.972656 823.179688 1097.175781 821.492188 1096.460938 819.765625 C 1095.746094 818.039062 1095.117188 816.28125 1094.574219 814.492188 C 1094.03125 812.707031 1093.578125 810.894531 1093.214844 809.0625 C 1092.851562 807.230469 1092.574219 805.382812 1092.394531 803.523438 C 1092.210938 801.664062 1092.117188 799.800781 1092.117188 797.929688 C 1092.117188 796.0625 1092.210938 794.195312 1092.394531 792.335938 C 1092.574219 790.476562 1092.851562 788.632812 1093.214844 786.796875 C 1093.578125 784.964844 1094.03125 783.15625 1094.574219 781.367188 C 1095.117188 779.578125 1095.746094 777.820312 1096.460938 776.09375 C 1097.175781 774.367188 1097.972656 772.679688 1098.855469 771.03125 C 1099.738281 769.382812 1100.695312 767.785156 1101.734375 766.230469 C 1102.773438 764.675781 1103.882812 763.175781 1105.070312 761.730469 C 1106.253906 760.289062 1107.507812 758.90625 1108.832031 757.582031 C 1110.152344 756.261719 1111.535156 755.007812 1112.980469 753.824219 C 1114.425781 752.636719 1115.921875 751.527344 1117.476562 750.488281 C 1119.03125 749.449219 1120.632812 748.488281 1122.28125 747.609375 C 1123.929688 746.726562 1125.613281 745.929688 1127.339844 745.214844 C 1129.066406 744.5 1130.824219 743.871094 1132.613281 743.328125 C 1134.402344 742.785156 1136.210938 742.332031 1138.046875 741.96875 C 1139.878906 741.601562 1141.722656 741.328125 1143.585938 741.144531 C 1145.445312 740.960938 1147.308594 740.871094 1149.175781 740.871094 C 1151.046875 740.871094 1152.910156 740.960938 1154.769531 741.144531 C 1156.628906 741.328125 1158.476562 741.601562 1160.308594 741.96875 C 1162.140625 742.332031 1163.953125 742.785156 1165.742188 743.328125 C 1167.527344 743.871094 1169.285156 744.5 1171.011719 745.214844 C 1172.738281 745.929688 1174.425781 746.726562 1176.074219 747.609375 C 1177.722656 748.488281 1179.324219 749.449219 1180.878906 750.488281 C 1182.429688 751.527344 1183.929688 752.636719 1185.375 753.824219 C 1186.820312 755.007812 1188.203125 756.261719 1189.523438 757.582031 C 1190.84375 758.90625 1192.097656 760.289062 1193.285156 761.730469 C 1194.46875 763.175781 1195.582031 764.675781 1196.621094 766.230469 C 1197.65625 767.785156 1198.617188 769.382812 1199.5 771.03125 C 1200.378906 772.679688 1201.175781 774.367188 1201.890625 776.09375 C 1202.609375 777.820312 1203.238281 779.578125 1203.777344 781.367188 C 1204.320312 783.15625 1204.773438 784.964844 1205.140625 786.796875 C 1205.503906 788.632812 1205.777344 790.476562 1205.960938 792.335938 C 1206.144531 794.195312 1206.234375 796.0625 1206.234375 797.929688 Z M 1206.234375 797.929688 " fill-opacity="1" fill-rule="nonzero"/></g><path fill="#b8c5cd" d="M 578.585938 912.046875 C 578.585938 913.917969 578.496094 915.78125 578.3125 917.640625 C 578.128906 919.5 577.855469 921.347656 577.492188 923.179688 C 577.125 925.011719 576.671875 926.824219 576.128906 928.613281 C 575.585938 930.398438 574.957031 932.15625 574.242188 933.882812 C 573.527344 935.609375 572.730469 937.296875 571.847656 938.945312 C 570.96875 940.59375 570.007812 942.195312 568.972656 943.75 C 567.933594 945.300781 566.820312 946.800781 565.636719 948.246094 C 564.449219 949.691406 563.195312 951.074219 561.875 952.394531 C 560.554688 953.714844 559.171875 954.96875 557.726562 956.15625 C 556.28125 957.339844 554.78125 958.453125 553.226562 959.492188 C 551.675781 960.527344 550.074219 961.488281 548.425781 962.371094 C 546.777344 963.25 545.089844 964.046875 543.363281 964.765625 C 541.636719 965.480469 539.878906 966.109375 538.089844 966.648438 C 536.304688 967.191406 534.492188 967.644531 532.660156 968.011719 C 530.828125 968.375 528.980469 968.648438 527.121094 968.832031 C 525.261719 969.015625 523.398438 969.105469 521.527344 969.105469 C 519.660156 969.105469 517.796875 969.015625 515.933594 968.832031 C 514.074219 968.648438 512.230469 968.375 510.394531 968.011719 C 508.5625 967.644531 506.753906 967.191406 504.964844 966.648438 C 503.175781 966.109375 501.417969 965.480469 499.691406 964.765625 C 497.964844 964.046875 496.277344 963.25 494.628906 962.371094 C 492.980469 961.488281 491.382812 960.527344 489.828125 959.492188 C 488.273438 958.453125 486.773438 957.339844 485.328125 956.15625 C 483.886719 954.96875 482.503906 953.714844 481.179688 952.394531 C 479.859375 951.074219 478.605469 949.691406 477.421875 948.246094 C 476.234375 946.800781 475.125 945.300781 474.085938 943.75 C 473.046875 942.195312 472.085938 940.59375 471.207031 938.945312 C 470.324219 937.296875 469.527344 935.609375 468.8125 933.882812 C 468.097656 932.15625 467.46875 930.398438 466.925781 928.613281 C 466.382812 926.824219 465.929688 925.011719 465.566406 923.179688 C 465.199219 921.347656 464.925781 919.5 464.742188 917.640625 C 464.558594 915.78125 464.46875 913.917969 464.46875 912.046875 C 464.46875 910.179688 464.558594 908.316406 464.742188 906.457031 C 464.925781 904.597656 465.199219 902.75 465.566406 900.917969 C 465.929688 899.082031 466.382812 897.273438 466.925781 895.484375 C 467.46875 893.695312 468.097656 891.9375 468.8125 890.210938 C 469.527344 888.484375 470.324219 886.800781 471.207031 885.152344 C 472.085938 883.503906 473.046875 881.902344 474.085938 880.347656 C 475.125 878.792969 476.234375 877.292969 477.421875 875.851562 C 478.605469 874.40625 479.859375 873.023438 481.179688 871.703125 C 482.503906 870.378906 483.886719 869.125 485.328125 867.941406 C 486.773438 866.753906 488.273438 865.644531 489.828125 864.605469 C 491.382812 863.566406 492.980469 862.609375 494.628906 861.726562 C 496.277344 860.84375 497.964844 860.046875 499.691406 859.332031 C 501.417969 858.617188 503.175781 857.988281 504.964844 857.445312 C 506.753906 856.902344 508.5625 856.449219 510.394531 856.085938 C 512.230469 855.722656 514.074219 855.445312 515.933594 855.265625 C 517.796875 855.082031 519.660156 854.988281 521.527344 854.988281 C 523.398438 854.988281 525.261719 855.082031 527.121094 855.265625 C 528.980469 855.445312 530.828125 855.722656 532.660156 856.085938 C 534.492188 856.449219 536.304688 856.902344 538.089844 857.445312 C 539.878906 857.988281 541.636719 858.617188 543.363281 859.332031 C 545.089844 860.046875 546.777344 860.84375 548.425781 861.726562 C 550.074219 862.609375 551.675781 863.566406 553.226562 864.605469 C 554.78125 865.644531 556.28125 866.753906 557.726562 867.941406 C 559.171875 869.125 560.554688 870.378906 561.875 871.703125 C 563.195312 873.023438 564.449219 874.40625 565.636719 875.851562 C 566.820312 877.292969 567.933594 878.792969 568.972656 880.347656 C 570.007812 881.902344 570.96875 883.503906 571.847656 885.152344 C 572.730469 886.800781 573.527344 888.484375 574.242188 890.210938 C 574.957031 891.9375 575.585938 893.695312 576.128906 895.484375 C 576.671875 897.273438 577.125 899.082031 577.492188 900.917969 C 577.855469 902.75 578.128906 904.597656 578.3125 906.457031 C 578.496094 908.316406 578.585938 910.179688 578.585938 912.046875 Z M 578.585938 912.046875 " fill-opacity="1" fill-rule="nonzero"/><g clip-path="url(#ed00e2d783)"><path fill="#f4bc33" d="M 1260.03125 750.246094 C 1260.03125 758.597656 1259.824219 766.945312 1259.414062 775.289062 C 1259.003906 783.632812 1258.390625 791.957031 1257.574219 800.269531 C 1256.753906 808.582031 1255.730469 816.871094 1254.503906 825.132812 C 1253.28125 833.394531 1251.851562 841.621094 1250.222656 849.816406 C 1248.59375 858.007812 1246.765625 866.15625 1244.734375 874.257812 C 1242.703125 882.359375 1240.476562 890.40625 1238.054688 898.398438 C 1235.628906 906.394531 1233.007812 914.320312 1230.195312 922.1875 C 1227.382812 930.050781 1224.375 937.839844 1221.179688 945.558594 C 1217.984375 953.273438 1214.597656 960.910156 1211.027344 968.460938 C 1207.457031 976.011719 1203.703125 983.46875 1199.765625 990.835938 C 1195.828125 998.203125 1191.710938 1005.46875 1187.417969 1012.632812 C 1183.125 1019.796875 1178.65625 1026.851562 1174.015625 1033.796875 C 1169.375 1040.742188 1164.566406 1047.566406 1159.589844 1054.277344 C 1154.617188 1060.984375 1149.476562 1067.570312 1144.179688 1074.027344 C 1138.878906 1080.480469 1133.425781 1086.804688 1127.816406 1092.992188 C 1122.207031 1099.183594 1116.449219 1105.230469 1110.542969 1111.136719 C 1104.636719 1117.042969 1098.589844 1122.800781 1092.402344 1128.410156 C 1086.210938 1134.019531 1079.890625 1139.472656 1073.433594 1144.773438 C 1066.976562 1150.070312 1060.394531 1155.207031 1053.683594 1160.183594 C 1046.976562 1165.160156 1040.148438 1169.96875 1033.203125 1174.609375 C 1026.257812 1179.25 1019.203125 1183.714844 1012.039062 1188.011719 C 1004.875 1192.304688 997.609375 1196.421875 990.242188 1200.359375 C 982.875 1204.296875 975.417969 1208.050781 967.867188 1211.621094 C 960.316406 1215.191406 952.683594 1218.574219 944.964844 1221.773438 C 937.25 1224.96875 929.457031 1227.972656 921.59375 1230.789062 C 913.730469 1233.601562 905.800781 1236.222656 897.808594 1238.644531 C 889.8125 1241.070312 881.765625 1243.296875 873.664062 1245.328125 C 865.5625 1247.355469 857.414062 1249.1875 849.222656 1250.816406 C 841.03125 1252.445312 832.800781 1253.875 824.539062 1255.097656 C 816.277344 1256.324219 807.992188 1257.347656 799.679688 1258.164062 C 791.367188 1258.984375 783.039062 1259.597656 774.695312 1260.007812 C 766.351562 1260.417969 758.003906 1260.621094 749.652344 1260.621094 C 741.300781 1260.621094 732.953125 1260.417969 724.609375 1260.007812 C 716.265625 1259.597656 707.9375 1258.984375 699.625 1258.164062 C 691.3125 1257.347656 683.027344 1256.324219 674.765625 1255.097656 C 666.5 1253.875 658.273438 1252.445312 650.082031 1250.816406 C 641.890625 1249.1875 633.742188 1247.355469 625.640625 1245.328125 C 617.539062 1243.296875 609.492188 1241.070312 601.496094 1238.644531 C 593.503906 1236.222656 585.574219 1233.601562 577.710938 1230.789062 C 569.847656 1227.972656 562.054688 1224.96875 554.339844 1221.773438 C 546.621094 1218.574219 538.988281 1215.191406 531.4375 1211.621094 C 523.886719 1208.050781 516.429688 1204.296875 509.0625 1200.359375 C 501.695312 1196.421875 494.429688 1192.304688 487.265625 1188.011719 C 480.101562 1183.714844 473.046875 1179.25 466.101562 1174.609375 C 459.15625 1169.96875 452.328125 1165.160156 445.621094 1160.183594 C 438.910156 1155.207031 432.328125 1150.070312 425.871094 1144.773438 C 419.414062 1139.472656 413.09375 1134.019531 406.902344 1128.410156 C 400.714844 1122.800781 394.667969 1117.042969 388.761719 1111.136719 C 382.855469 1105.230469 377.097656 1099.183594 371.488281 1092.992188 C 365.878906 1086.804688 360.425781 1080.480469 355.125 1074.023438 C 349.824219 1067.570312 344.6875 1060.984375 339.714844 1054.277344 C 334.738281 1047.566406 329.929688 1040.742188 325.289062 1033.796875 C 320.648438 1026.851562 316.179688 1019.796875 311.886719 1012.632812 C 307.59375 1005.46875 303.476562 998.203125 299.539062 990.835938 C 295.601562 983.46875 291.847656 976.011719 288.277344 968.460938 C 284.703125 960.910156 281.320312 953.273438 278.125 945.558594 C 274.929688 937.839844 271.921875 930.050781 269.109375 922.1875 C 266.296875 914.320312 263.675781 906.394531 261.25 898.398438 C 258.828125 890.40625 256.597656 882.359375 254.570312 874.257812 C 252.539062 866.15625 250.710938 858.007812 249.082031 849.816406 C 247.453125 841.621094 246.023438 833.394531 244.796875 825.132812 C 243.574219 816.871094 242.550781 808.582031 241.730469 800.269531 C 240.914062 791.957031 240.300781 783.632812 239.890625 775.289062 C 239.480469 766.945312 239.273438 758.597656 239.273438 750.246094 C 239.273438 741.890625 239.480469 733.542969 239.890625 725.203125 C 240.300781 716.859375 240.914062 708.53125 241.730469 700.21875 C 242.550781 691.90625 243.574219 683.621094 244.796875 675.355469 C 246.023438 667.09375 247.453125 658.867188 249.082031 650.675781 C 250.710938 642.484375 252.539062 634.335938 254.570312 626.234375 C 256.597656 618.132812 258.828125 610.082031 261.25 602.089844 C 263.675781 594.097656 266.296875 586.167969 269.109375 578.304688 C 271.921875 570.441406 274.929688 562.648438 278.125 554.933594 C 281.320312 547.214844 284.703125 539.582031 288.277344 532.03125 C 291.847656 524.480469 295.601562 517.019531 299.539062 509.65625 C 303.476562 502.289062 307.59375 495.023438 311.886719 487.859375 C 316.179688 480.695312 320.648438 473.640625 325.289062 466.695312 C 329.929688 459.75 334.738281 452.921875 339.714844 446.214844 C 344.6875 439.503906 349.824219 432.921875 355.125 426.464844 C 360.425781 420.007812 365.878906 413.683594 371.488281 407.496094 C 377.097656 401.308594 382.855469 395.261719 388.761719 389.355469 C 394.667969 383.449219 400.714844 377.691406 406.902344 372.082031 C 413.09375 366.472656 419.414062 361.015625 425.871094 355.71875 C 432.328125 350.417969 438.910156 345.28125 445.621094 340.304688 C 452.328125 335.332031 459.15625 330.523438 466.101562 325.882812 C 473.046875 321.242188 480.101562 316.773438 487.265625 312.480469 C 494.429688 308.183594 501.695312 304.070312 509.0625 300.132812 C 516.429688 296.195312 523.886719 292.441406 531.4375 288.871094 C 538.988281 285.296875 546.621094 281.914062 554.339844 278.71875 C 562.054688 275.519531 569.847656 272.515625 577.710938 269.703125 C 585.574219 266.886719 593.503906 264.269531 601.496094 261.84375 C 609.492188 259.417969 617.539062 257.191406 625.640625 255.164062 C 633.742188 253.132812 641.890625 251.304688 650.082031 249.675781 C 658.273438 248.042969 666.5 246.617188 674.765625 245.390625 C 683.027344 244.164062 691.3125 243.144531 699.625 242.324219 C 707.9375 241.507812 716.265625 240.890625 724.609375 240.480469 C 732.953125 240.074219 741.300781 239.867188 749.652344 239.867188 C 758.003906 239.867188 766.351562 240.074219 774.695312 240.480469 C 783.039062 240.890625 791.367188 241.507812 799.679688 242.324219 C 807.992188 243.144531 816.277344 244.164062 824.539062 245.390625 C 832.800781 246.617188 841.03125 248.042969 849.222656 249.675781 C 857.414062 251.304688 865.5625 253.132812 873.664062 255.164062 C 881.765625 257.191406 889.8125 259.417969 897.808594 261.84375 C 905.800781 264.269531 913.730469 266.886719 921.59375 269.703125 C 929.457031 272.515625 937.25 275.519531 944.964844 278.71875 C 952.683594 281.914062 960.316406 285.296875 967.867188 288.871094 C 975.417969 292.441406 982.875 296.195312 990.242188 300.132812 C 997.609375 304.070312 1004.875 308.183594 1012.039062 312.480469 C 1019.203125 316.773438 1026.257812 321.242188 1033.203125 325.882812 C 1040.148438 330.523438 1046.976562 335.332031 1053.683594 340.304688 C 1060.394531 345.28125 1066.976562 350.417969 1073.433594 355.71875 C 1079.890625 361.015625 1086.210938 366.472656 1092.402344 372.082031 C 1098.589844 377.691406 1104.636719 383.449219 1110.542969 389.355469 C 1116.449219 395.261719 1122.207031 401.308594 1127.816406 407.496094 C 1133.425781 413.683594 1138.878906 420.007812 1144.179688 426.464844 C 1149.476562 432.921875 1154.617188 439.503906 1159.589844 446.214844 C 1164.566406 452.921875 1169.375 459.75 1174.015625 466.695312 C 1178.65625 473.640625 1183.125 480.695312 1187.417969 487.859375 C 1191.710938 495.023438 1195.828125 502.289062 1199.765625 509.65625 C 1203.703125 517.019531 1207.457031 524.480469 1211.027344 532.03125 C 1214.597656 539.582031 1217.984375 547.214844 1221.179688 554.933594 C 1224.375 562.648438 1227.382812 570.441406 1230.195312 578.304688 C 1233.007812 586.167969 1235.628906 594.097656 1238.054688 602.089844 C 1240.476562 610.082031 1242.703125 618.132812 1244.734375 626.234375 C 1246.765625 634.335938 1248.59375 642.484375 1250.222656 650.675781 C 1251.851562 658.867188 1253.28125 667.09375 1254.503906 675.355469 C 1255.730469 683.621094 1256.753906 691.90625 1257.574219 700.21875 C 1258.390625 708.53125 1259.003906 716.859375 1259.414062 725.203125 C 1259.824219 733.542969 1260.03125 741.890625 1260.03125 750.246094 Z M 1260.03125 750.246094 " fill-opacity="1" fill-rule="nonzero"/></g><g clip-path="url(#71905f4a16)"><path fill="#f4bc33" d="M 648.890625 175.152344 L 749.652344 0.597656 L 850.402344 175.152344 Z M 648.890625 175.152344 " fill-opacity="1" fill-rule="nonzero"/></g><path fill="#f4bc33" d="M 374.851562 302.585938 L 374.816406 101.039062 L 549.359375 201.828125 Z M 374.851562 302.585938 " fill-opacity="1" fill-rule="nonzero"/><path fill="#f4bc33" d="M 201.230469 549.960938 L 100.433594 375.4375 L 301.980469 375.453125 Z M 201.230469 549.960938 " fill-opacity="1" fill-rule="nonzero"/><g clip-path="url(#97df361089)"><path fill="#f4bc33" d="M 174.558594 851.007812 L 0 750.269531 L 174.558594 649.507812 Z M 174.558594 851.007812 " fill-opacity="1" fill-rule="nonzero"/></g><g clip-path="url(#3378baab30)"><path fill="#f4bc33" d="M 1324.742188 649.507812 L 1499.320312 750.238281 L 1324.742188 851.007812 Z M 1324.742188 649.507812 " fill-opacity="1" fill-rule="nonzero"/></g><path fill="#f4bc33" d="M 1197.324219 375.453125 L 1398.871094 375.40625 L 1298.070312 549.960938 Z M 1197.324219 375.453125 " fill-opacity="1" fill-rule="nonzero"/><path fill="#f4bc33" d="M 949.941406 201.835938 L 1124.46875 101.019531 L 1124.449219 302.585938 Z M 949.941406 201.835938 " fill-opacity="1" fill-rule="nonzero"/></g></g></svg>